<svg width="273" height="12" viewBox="0 0 273 12" fill="none" xmlns="http://www.w3.org/2000/svg">
<g clip-path="url(#clip0_37_38)">
<mask id="mask0_37_38" style="mask-type:alpha" maskUnits="userSpaceOnUse" x="0" y="0" width="273" height="12">
<path d="M273 0H0V12H273V0Z" fill="#C4C4C4"/>
</mask>
<g mask="url(#mask0_37_38)">
<path d="M41.0057 -2.53807L41.6729 -2.69625L40.3746 -2.92303L40.9969 -3.08903C41.6211 -3.08751 42.4297 -2.83877 42.8697 -2.97094C42.9235 -3.0989 42.2439 -3.13997 42.0704 -3.24192C41.917 -3.34642 41.7918 -3.45024 41.6962 -3.55213C42.0361 -3.55103 42.4098 -3.52639 42.795 -3.47964C43.3132 -3.4033 43.8216 -3.36618 44.2639 -3.3724C45.1683 -3.35178 46.042 -3.37235 47.0253 -3.36782L46.6982 -3.67578L47.9655 -3.60373C48.0998 -3.58027 48.2599 -3.618 48.3918 -3.58898C49.4901 -3.3434 49.9548 -3.47722 50.482 -3.58818C50.5902 -3.61689 50.7203 -3.63833 50.8693 -3.65193C52.3344 -3.5931 53.6555 -3.24889 54.9749 -3.07218C55.2232 -3.02706 55.4614 -2.96915 55.6726 -2.90254C56.1315 -2.77306 56.642 -2.66735 57.1573 -2.59508C57.6726 -2.5228 58.1764 -2.48627 58.6225 -2.48882C59.6089 -2.49168 60.7234 -2.40604 61.8581 -2.24019C62.1956 -2.18556 62.5332 -2.14952 62.8495 -2.13437C63.1659 -2.11922 63.454 -2.12528 63.6954 -2.15218L64.4626 -1.97638C64.7951 -2.04772 65.2167 -2.08686 65.7019 -2.09142C66.1872 -2.09598 66.7257 -2.06588 67.2851 -2.00294C67.8812 -1.93466 68.4866 -1.88863 69.1051 -1.81645C70.3826 -1.67843 71.6262 -1.59403 72.7962 -1.56586C74.5391 -1.48236 76.2424 -1.41781 78.0009 -1.31372C79.1007 -1.26347 80.1729 -1.23584 81.2103 -1.23096C82.4526 -1.2113 83.7963 -1.11616 85.1769 -0.950129C85.1117 -0.79435 84.5061 -0.840372 84.0998 -0.845644C82.7894 -0.871536 81.4478 -0.93863 80.0991 -0.989032C79.4914 -1.00871 78.9008 -1.01616 78.3306 -1.01133C77.3762 -1.01779 76.3707 -1.0593 75.3305 -1.13515C73.6875 -1.21861 72.097 -1.25872 70.5752 -1.25509C70.4559 -1.24892 70.3466 -1.23799 70.2491 -1.22247C70.2288 -1.20904 70.2247 -1.19209 70.2374 -1.17326C70.2501 -1.15444 70.2791 -1.13435 70.3216 -1.11495C70.3641 -1.09554 70.4187 -1.07746 70.4801 -1.06242C70.5416 -1.04739 70.6078 -1.03591 70.6725 -1.02908C71.2766 -0.923511 71.9261 -0.810124 72.4962 -0.794174C72.5182 -0.79298 72.5416 -0.790259 72.565 -0.786201C72.5877 -0.782144 72.6104 -0.776853 72.6303 -0.770714C73.9066 -0.547841 74.9554 -0.585556 75.9495 -0.549295C77.5996 -0.451295 79.1908 -0.405519 80.6983 -0.412658C80.9259 -0.412173 81.172 -0.399433 81.4272 -0.3749C83.0057 -0.27545 84.482 -0.264328 85.7867 -0.342034C86.3235 -0.361722 86.8227 -0.405916 87.3999 -0.406655C87.7552 -0.409697 88.0643 -0.437899 88.309 -0.489574C88.5536 -0.54125 88.7287 -0.615329 88.8238 -0.707357C89.067 -0.658905 89.3145 -0.615724 89.5619 -0.578331C89.7101 -0.55695 89.8527 -0.55127 89.9597 -0.562459C90.0668 -0.573647 90.1313 -0.600867 90.1406 -0.638612C90.1845 -0.74432 89.8463 -0.797405 89.5534 -0.842672C89.73 -0.865342 89.9292 -0.878679 90.1469 -0.882361C91.3694 -0.906515 92.6805 -0.878007 94.0519 -0.797463C95.1162 -0.701054 95.9664 -0.779524 97.0868 -0.643568C97.2215 -0.620107 97.3314 -0.654541 97.4555 -0.662809C97.7775 -0.706347 98.1795 -0.716133 98.6255 -0.691311C99.0716 -0.666488 99.5481 -0.607806 100.015 -0.520356C100.595 -0.759277 101.85 -0.48633 102.777 -0.461799C103.063 -0.340296 102.735 -0.361656 102.721 -0.328275C102.707 -0.294893 102.721 -0.328282 102.609 -0.347833C101.684 -0.175763 100.416 -0.138243 98.9843 -0.240546C98.7191 -0.24012 98.4667 -0.232282 98.2291 -0.217104C97.8696 -0.195621 97.464 -0.197766 97.0308 -0.223445C96.5564 -0.242304 96.1217 -0.233347 95.7459 -0.197007C95.5296 -0.197599 95.3467 -0.179394 95.2141 -0.144068C95.0822 -0.108742 95.0042 -0.0574398 94.9879 0.00506878C95.1325 0.053259 95.2921 0.0973533 95.4616 0.135602C96.3465 0.286619 97.2293 0.349129 97.9356 0.310833C99.1644 0.244848 100.627 0.309238 101.934 0.286712C102.818 0.277587 103.758 0.30358 104.737 0.364209C104.737 0.364209 104.712 0.425408 104.709 0.430971C104.825 0.457469 104.946 0.478728 105.068 0.493533C105.068 0.493533 105.068 0.493533 105.079 0.465715C105.025 0.439 104.953 0.413871 104.869 0.393233L104.578 0.342401C104.776 0.329172 104.961 0.289787 105.167 0.313851C105.601 0.358557 106.016 0.37743 106.387 0.36935C106.758 0.361269 107.077 0.326397 107.325 0.266828C107.765 0.190479 108.312 0.155761 108.93 0.164911C109.404 0.156575 109.86 0.138661 110.298 0.111256C110.298 0.111256 110.326 0.0444998 110.533 0.00901747C110.337 -0.0347444 110.133 -0.0704805 109.929 -0.0965495C109.043 -0.161679 108.155 -0.221244 107.285 -0.265771C106.964 -0.270582 106.663 -0.263121 106.387 -0.243535C105.621 -0.220616 104.76 -0.253146 103.855 -0.339226C103.855 -0.339226 103.676 -0.370504 103.587 -0.386144C103.841 -0.532898 104.716 -0.38598 105.07 -0.485365C105.285 -0.483557 105.665 -0.471059 105.652 -0.497224C105.622 -0.532137 105.619 -0.564574 105.641 -0.592202C105.664 -0.619831 105.713 -0.641972 105.783 -0.657032C105.854 -0.672095 105.945 -0.679707 106.05 -0.679321C106.155 -0.678933 106.272 -0.670553 106.391 -0.654793C107.387 -0.569529 108.326 -0.545817 109.149 -0.585112C109.461 -0.584355 109.811 -0.559083 110.121 -0.552761C110.31 -0.545145 110.484 -0.54938 110.63 -0.565232C111.379 -0.681974 112.385 -0.6905 113.5 -0.589529C114.039 -0.553226 114.542 -0.548373 114.984 -0.575214C115.298 -0.580017 115.432 -0.497018 115.656 -0.457917L116.606 -0.375493L115.386 -0.272213C115.647 -0.0355289 115.854 0.0425134 116.28 0.0572591C116.902 0.079526 117.508 0.0895855 118.094 0.0873756C118.527 0.08543 118.885 0.0344596 119.471 0.124993C119.575 0.13976 119.675 0.144538 119.754 0.138531C120.441 0.0581544 121.269 0.0397083 122.18 0.0844514C122.652 -0.0660571 123.455 0.0802764 124.199 0.198181C124.439 0.0848081 124.004 0.0327662 123.744 -0.0364091C124.366 -0.0293277 124.993 -0.0333716 125.635 -0.0168176C125.828 -0.0228429 126.048 -0.0125343 126.279 0.0132992C126.511 0.0391317 126.745 0.079781 126.966 0.132071C127.073 0.165858 127.203 0.191285 127.327 0.203077C127.452 0.214866 127.563 0.212116 127.636 0.195395C127.969 0.146081 128.502 0.191502 128.778 0.108202C128.876 0.0890449 129.016 0.0863705 129.172 0.100648C129.329 0.114923 129.493 0.145225 129.634 0.186122C129.479 0.198882 129.342 0.218975 129.225 0.245959C128.803 0.333614 128.958 0.480076 129.494 0.693007C130.316 0.681297 131.155 0.684622 131.917 0.644492C132.341 0.608468 132.862 0.619728 133.419 0.677013C133.977 0.734295 134.549 0.835331 135.072 0.968753C135.261 1.02006 135.478 1.05559 135.677 1.0683C135.876 1.08101 136.045 1.06996 136.149 1.03734C136.214 0.999616 136.234 0.951873 136.207 0.89825L135.67 0.804414C135.67 0.804414 135.691 0.754342 135.696 0.743215L136.468 0.734801C136.877 0.734509 137.303 0.749259 137.689 0.745057C138.257 0.717113 138.905 0.732688 139.593 0.790817C140.227 0.850424 140.851 0.895478 141.458 0.925584C142.046 0.956571 142.472 0.857783 143.031 0.842007C143.454 0.830115 143.919 0.842824 144.409 0.879635C145.255 0.944924 146.032 0.945046 146.668 0.879987C147.41 1.23051 147.77 1.2875 148.458 1.19279L148.782 1.16573L148.871 1.24091L149.118 1.22438C149.581 1.20965 150.044 1.19493 150.527 1.18968C151.198 1.22221 151.923 1.30973 152.631 1.44369C152.765 1.46715 152.948 1.54686 153.065 1.60926C153.184 1.67167 153.44 1.85993 153.63 1.98248C153.423 2.07195 153.196 2.1575 153.032 2.26035C153.016 2.27792 153.017 2.29887 153.037 2.32152C153.056 2.34417 153.093 2.36788 153.144 2.39076C153.196 2.41363 153.26 2.43502 153.331 2.45322C153.404 2.47142 153.481 2.48591 153.558 2.49554C153.708 2.51628 153.857 2.5301 153.998 2.53645C154.689 2.54739 155.351 2.53926 155.978 2.51213C156.207 2.47387 156.52 2.47023 156.868 2.50181C157.216 2.53339 157.579 2.59837 157.899 2.68644C158.719 2.63357 159.672 2.64919 160.692 2.73222C161.77 2.68172 163.073 2.78385 164.08 2.6732C164.057 2.72884 164.161 2.82462 164.306 2.87981C164.536 2.96364 164.795 3.04133 165.074 3.10959L167.205 3.24286C167.285 3.31139 167.384 3.38076 167.502 3.45007C167.583 3.50482 167.724 3.5584 167.895 3.59944C168.067 3.64048 168.255 3.66577 168.419 3.66994C168.843 3.69024 169.199 3.64484 169.704 3.75702C168.926 3.86307 167.876 3.84898 166.742 3.71727C165.676 3.61709 164.65 3.56703 163.704 3.56893C163.392 3.56817 162.98 3.57402 162.883 3.63462C162.667 3.80588 162.102 3.77881 161.442 3.74722C160.924 3.71264 160.451 3.71652 160.061 3.75854C159.672 3.80057 159.378 3.87954 159.202 3.98896C159.158 4.09466 159.264 4.18489 159.719 4.2464L161.61 4.49305C161.888 4.46134 162.152 4.4238 162.402 4.38059C162.821 4.3232 163.339 4.30745 163.916 4.33456C164.492 4.36167 165.111 4.43091 165.724 4.5369C166.037 4.59164 166.351 4.64638 166.578 4.62037C166.778 4.59049 166.961 4.55472 167.128 4.51332C167.161 4.48557 167.175 4.45363 167.168 4.41874C167.288 4.43496 167.409 4.45606 167.526 4.4813C168.459 4.77574 169.182 4.77064 169.839 4.69427C170.017 4.67157 170.152 4.63548 170.332 4.60722C170.512 4.57895 170.576 4.54227 170.739 4.55294C172.045 4.64951 172.421 4.32698 173.52 4.33993C173.574 4.32733 173.607 4.3085 173.617 4.28516C173.627 4.26183 173.613 4.23475 173.576 4.20641C173.498 4.18082 173.409 4.15882 173.315 4.14242C173.221 4.12602 173.126 4.11576 173.039 4.11257C172.533 4.07118 172.086 4.08387 171.775 4.14847C171.554 4.17487 171.32 4.19591 171.075 4.21146L169.974 3.74439C171.041 3.78721 172.05 3.78693 172.978 3.74356C173.18 3.7192 173.523 3.76116 173.808 3.76914L175.904 3.81279C176.336 3.81641 176.703 3.74319 177.303 3.91387C177.303 3.91387 177.701 3.9414 177.806 3.91809C177.913 3.89479 178.382 3.74984 178.662 3.65542C178.987 3.68234 179.437 3.75498 179.639 3.73063C179.993 3.67081 180.299 3.59412 180.552 3.50194L181.819 3.63353C181.817 3.75043 181.771 3.8604 181.681 3.96178C181.582 4.05955 181.586 4.17691 181.691 4.30426C181.796 4.43162 182 4.56535 182.286 4.69454L183.536 5.37874C183.741 5.42456 183.958 5.4554 184.16 5.46708C184.361 5.47876 184.536 5.47071 184.662 5.44402C185.201 5.36479 185.803 5.30285 186.341 5.22362C187.035 5.34483 186.856 5.54061 187.361 5.71234L188.995 5.99777C189.245 6.26227 189.498 6.51564 188.74 6.60419C188.59 6.61968 188.691 6.72103 188.554 6.76268C189.143 6.96118 189.791 7.0206 190.388 7.14286C190.624 7.23078 190.821 7.32386 190.97 7.41758C191.134 7.55871 191.465 7.70286 191.892 7.81893C192.321 7.93499 192.81 8.01364 193.256 8.0379C194.005 8.11221 194.77 8.22381 195.521 8.36771C195.777 8.41774 196.04 8.45421 196.292 8.47462C196.545 8.49504 196.781 8.49895 196.984 8.48608C197.71 8.46342 198.324 8.38551 198.787 8.25741C199.244 8.1487 199.861 8.0963 200.581 8.10497C201.812 8.32002 202.061 8.64407 202.806 8.92949L201.519 8.96149C201.472 9.07276 201.557 9.21306 201.03 9.21049C200.502 9.20792 200.769 9.31439 200.94 9.4219C201.001 9.47599 201.118 9.53162 201.274 9.57939C201.429 9.62715 201.612 9.66411 201.792 9.68401L202.887 9.82162C203.276 9.874 203.652 9.89636 203.974 9.88626C204.296 9.87616 204.552 9.83399 204.713 9.76438C204.899 9.69827 205.155 9.65356 205.466 9.63297C205.861 9.57905 206.187 9.49885 206.43 9.39541L207.977 9.54612C208.043 9.44217 208.255 9.36928 208.579 9.33979C208.902 9.31028 209.316 9.32597 209.751 9.38421L210.794 9.47671C211.952 9.57763 212.207 9.54441 212.547 9.25134L211.156 8.72788C211.358 8.59 211.553 8.46881 211.749 8.34761C211.402 8.17515 210.941 8.01204 210.409 7.87483C209.914 7.7274 209.405 7.58461 208.883 7.44701C208.318 7.3064 207.72 7.18414 207.018 7.02563C206.895 6.97436 206.717 6.88352 206.49 6.79601C206.262 6.71096 206.024 6.62759 205.778 6.54623C205.824 6.43496 205.866 6.33482 205.776 6.20565C206.209 6.24686 206.656 6.31895 207.077 6.4154C207.498 6.51186 207.879 6.62965 208.187 6.75816C208.239 6.78094 208.303 6.80235 208.374 6.82093C208.445 6.8395 208.521 6.85482 208.599 6.86583C209.359 6.94479 209.722 7.10974 210.093 7.31199C210.344 7.41538 210.666 7.5072 211.016 7.5747C211.688 7.69201 212.345 7.84269 212.988 7.97278C213.184 8.01612 213.388 8.0518 213.592 8.07834C214.263 8.16273 214.938 8.28073 215.584 8.42634C215.795 8.46335 215.997 8.51232 216.174 8.56917C216.351 8.62602 216.497 8.68908 216.601 8.75311C216.44 8.82325 216.354 8.91179 216.347 9.01339C216.319 9.08015 216.791 9.21625 217.013 9.3149C217.236 9.41354 216.799 9.36706 216.651 9.37699C216.042 9.39607 215.929 9.43606 216.293 9.65501C216.415 9.72385 216.496 9.79274 216.531 9.85738C216.566 9.92202 216.554 9.98105 216.496 10.0308C216.41 10.2366 216.146 10.4057 215.965 10.607C216.246 10.7396 216.715 10.8813 216.766 11.0455C216.791 11.0819 216.843 11.1205 216.918 11.1585C216.994 11.1964 217.091 11.2328 217.203 11.265C217.498 11.3345 217.766 11.4176 217.986 11.5079C218.206 11.5982 218.373 11.6932 218.474 11.7856C218.507 11.8239 218.586 11.8644 218.697 11.8992C218.807 11.9339 218.939 11.9603 219.068 11.973C219.221 11.9886 219.359 11.9866 219.452 11.9673C219.545 11.9479 219.587 11.9129 219.568 11.8693C219.572 11.7873 219.552 11.7019 219.507 11.6138C219.533 11.5526 219.559 11.4914 219.457 11.39C219.916 11.427 220.398 11.5011 220.85 11.6044C221.302 11.7076 221.707 11.8359 222.022 11.9755C222.37 12.1198 222.691 12.2714 223.077 12.4403C222.997 12.6294 222.997 12.6294 223.818 12.9639L228.171 13.127L229.063 13.3485C229.895 13.5416 230.092 13.5283 230.615 13.4285L230.967 13.3347C231.706 13.4637 232.556 13.6123 233.018 13.3705C233.168 13.5281 233.266 13.581 233.232 13.605C233.012 13.8375 232.628 14.0348 232.098 14.1891C231.962 14.2252 231.867 14.2802 231.709 14.3124C231.201 14.494 231.083 14.7746 231.379 15.0969C231.527 15.2395 231.741 15.3855 232.015 15.5302C231.614 15.7311 231.084 15.8975 230.437 16.0251C229.888 16.1237 229.436 16.2558 229.095 16.4176C228.788 16.5808 228.327 16.7034 227.742 16.7785C227.444 16.8104 227.227 16.8734 227.112 16.9612C227.078 17.1988 227.157 17.4532 227.346 17.7187C227.382 17.7995 227.484 17.8868 227.643 17.9737C227.803 18.0606 228.015 18.1448 228.265 18.2196C228.265 18.2196 228.386 18.2765 228.443 18.3105C228.491 18.5982 228.311 18.8518 227.915 19.0542C227.85 19.1116 227.716 19.1531 227.53 19.1741C227.343 19.1952 227.11 19.195 226.855 19.1737C226.316 19.1394 225.814 19.1352 225.293 19.1159C224.732 19.0887 224.238 19.1101 223.863 19.1781C223.488 19.246 223.245 19.3578 223.161 19.5019C223.155 19.5426 223.139 19.5817 223.111 19.6187C223.096 19.6378 223.087 19.6583 223.086 19.6799L224.281 20.1515L222.929 20.3392C222.85 20.5284 223.499 20.6418 223.824 20.7822L223.623 20.8606C223.364 20.9049 223.015 20.8201 222.699 20.7709L222.386 20.7162L222.348 20.8052C222.153 20.9264 221.442 20.7902 221.164 20.879C220.887 20.9679 221.085 21.0682 221.501 21.1647C221.79 21.2365 222.1 21.2937 222.409 21.3321C222.717 21.3705 223.016 21.389 223.282 21.3863C223.441 21.3768 223.572 21.3551 223.669 21.3225C224.23 21.1839 224.851 21.0647 225.525 20.9659C226.042 20.8771 226.689 20.8394 227.422 20.8553C227.637 20.8486 227.896 20.8696 228.154 20.9146C228.412 20.9597 228.652 21.0259 228.832 21.1016L229.212 21.1141C229.212 21.1141 229.419 21.1921 229.39 21.2049C229.245 21.4361 229.413 21.7188 229.868 22.011L229.472 22.0375C228.907 22.0104 229.266 22.1865 229.181 22.2733C228.779 22.2569 228.257 22.1836 228.067 22.2937L227.782 22.2857L227.894 22.3053L228.029 22.2692L228.561 22.4337C228.309 22.4614 228.126 22.4952 227.904 22.5101C227.781 22.523 227.683 22.5459 227.616 22.5773C227.55 22.6087 227.515 22.648 227.515 22.6929C227.516 22.7619 227.449 22.82 227.322 22.8616C227.195 22.9032 227.012 22.927 226.79 22.9306C226.525 22.9321 226.373 23.0071 226.218 23.0338L226.893 23.4861C226.893 23.4861 226.557 23.4274 226.74 23.5071L226.763 23.4515L227.172 23.5647C227.467 23.664 227.673 23.688 227.847 23.6169C228.021 23.5458 227.981 23.6404 228.065 23.6132C228.035 23.6855 227.845 23.736 227.683 23.7793C227.495 23.8133 227.283 23.8384 227.051 23.854C227.469 24.1721 227.49 24.1815 226.878 24.2657C226.265 24.3499 226.477 24.4764 225.965 24.4944C225.452 24.5125 226.035 24.7277 226.377 24.7696C226.632 24.7972 226.891 24.8402 227.137 24.8956C227.384 24.951 227.611 25.0175 227.805 25.0905L227.702 25.3353C227.551 25.3151 227.4 25.2887 227.254 25.2571C226.758 25.1227 226.307 24.9961 225.865 25.0742L226.075 25.2603L224.535 25.1524C224.574 25.2918 224.81 25.4506 225.19 25.5952C225.132 25.6747 225.097 25.7584 225.084 25.8456C225.059 25.9068 224.907 25.8683 224.808 25.8749C224.455 25.8852 224.165 25.9266 223.964 25.9957C223.764 26.0647 223.658 26.1593 223.656 26.271C223.616 26.3655 224.159 26.5618 224.498 26.5553C225.344 26.5742 226.26 26.647 227.195 26.7697C227.765 26.7856 227.845 26.5369 228.783 26.7067C228.802 26.8215 228.682 26.9145 228.441 26.9716C228.201 27.0287 227.852 27.0467 227.449 27.023C227.679 27.2781 228.948 27.3446 229.004 27.6112C228.688 27.5923 228.35 27.548 228.023 27.4826C227.697 27.4172 227.393 27.333 227.143 27.2382C227.088 27.2149 227.021 27.1933 226.945 27.1756C226.87 27.1579 226.789 27.1446 226.711 27.1369C226.632 27.1292 226.559 27.1273 226.497 27.1315C226.436 27.1357 226.387 27.1458 226.358 27.1609C226.533 27.2573 226.727 27.3687 226.948 27.4729C227.168 27.5771 227.221 27.6222 227.38 27.6441C228.566 27.8513 229.131 28.2245 230.157 28.4695C230.426 28.5164 230.459 28.6656 230.226 28.6487C230.004 28.6319 229.803 28.6341 229.646 28.6551C229.489 28.6761 229.381 28.7151 229.335 28.7678C229.163 28.8292 228.949 28.8781 228.697 28.9132C229.75 29.2962 231.005 29.6346 232.345 29.8967C232.598 29.9485 232.864 29.98 233.1 29.9868C233.848 29.9871 234.641 30.0175 235.465 30.0773C235.757 30.0936 236.027 30.0921 236.259 30.0728C237.024 30.0271 237.631 30.1272 238.185 30.4091L239.102 30.856C239.072 30.9283 238.918 31.0089 238.799 31.1196L239.516 31.3583L244.985 30.8086L246.083 31.3408L247.658 31.3112C247.779 31.3266 247.9 31.3478 248.016 31.3738C248.334 31.5309 248.583 31.6819 248.929 31.8318C249.274 31.9817 249.892 31.9999 250.322 32.1766C250.752 32.3533 251.183 32.3569 251.715 32.4619C251.766 32.5987 251.714 32.7218 251.564 32.8235C251.515 32.9404 251.244 33.0126 251.197 33.1238C251.203 33.2363 251.102 33.3318 250.905 33.4016C250.708 33.4714 250.42 33.5134 250.068 33.5238C249.083 33.7632 247.894 33.9337 246.539 34.0301C246.42 34.0371 246.321 34.0533 246.249 34.0777C246.177 34.1021 246.133 34.1341 246.119 34.1718C246.121 34.2809 246.031 34.3752 245.855 34.4478C245.679 34.5204 245.422 34.5694 245.102 34.5913C245.017 34.5957 244.953 34.6094 244.917 34.6307C244.796 34.6444 244.707 34.6707 244.661 34.707C244.614 34.7434 244.61 34.7885 244.65 34.838C244.689 34.8876 244.771 34.9399 244.887 34.9899C245.002 35.0399 245.149 35.0859 245.311 35.1234C245.546 35.184 245.787 35.2419 246.031 35.297C246.017 35.3304 245.775 35.3358 245.809 35.3658C245.906 35.4618 245.928 35.5518 245.875 35.6285C245.821 35.7053 245.695 35.7667 245.504 35.8081L246.811 36.5858C247.604 36.6935 248.383 36.8762 248.998 37.0992C248.999 37.1357 248.963 37.1663 248.895 37.188C248.827 37.2096 248.729 37.2215 248.61 37.2225C248.291 37.2384 247.989 37.2694 247.645 37.287C247.435 37.3001 247.26 37.329 247.131 37.372C247.001 37.415 246.921 37.4713 246.891 37.5375L247.659 37.8268C247.413 37.8973 247.23 37.9311 247.068 37.9744C247.16 38.0654 247.318 38.1594 247.531 38.2493C247.743 38.3392 248.003 38.4225 248.292 38.4928C248.37 38.5073 248.449 38.5179 248.525 38.524C248.6 38.53 248.671 38.5314 248.734 38.5281C249.329 38.4289 250.024 38.6041 250.699 38.7698C251.374 38.9355 251.741 39.0354 252.239 39.1643L253.193 39.1816C253.434 39.2426 253.65 39.3143 253.822 39.3911C253.994 39.4678 254.119 39.5474 254.184 39.6235C254.133 39.7459 253.681 39.6789 253.412 39.6915C252.772 39.7677 251.931 39.7514 251.028 39.6454C250.804 39.6063 250.574 39.6379 250.357 39.6416C249.887 39.6569 249.435 39.6817 249.004 39.7159C248.72 39.7478 248.454 39.7872 248.209 39.8339C248.144 39.9897 249.175 40.11 248.59 40.187C248.791 40.2222 248.866 40.2712 248.97 40.2535C249.634 40.3546 250.287 40.4046 250.856 40.3977C251.947 40.3762 253.185 40.4472 254.47 40.6048C255.856 40.7682 257.186 40.8367 258.35 40.8049C258.794 40.8031 259.289 40.8365 259.799 40.9027C260.401 40.9944 260.999 41.052 261.554 41.0719C261.738 41.0726 261.943 41.0882 262.151 41.1174C262.36 41.1467 262.568 41.1887 262.757 41.2402C262.74 41.2791 262.56 41.3074 262.601 41.3263C263.175 41.6178 263.408 41.9212 264.292 42.219C264.896 42.3245 265.59 42.4457 265.985 42.3058C266.381 42.1658 266.239 42.0455 265.453 41.6871C265.623 41.682 265.828 41.6987 266.033 41.7344C266.238 41.7702 266.428 41.8226 266.572 41.8826L267.252 42.1508L267.865 42.4071C267.811 42.5351 267.769 42.6352 267.725 42.741C267.654 42.8532 267.732 42.9899 267.945 43.1318C268.073 43.2092 268.186 43.2867 268.28 43.3635C268.663 43.6706 268.775 43.9609 268.601 44.2018C268.268 44.5482 267.804 44.8669 267.215 45.1542C266.594 45.4337 266.252 45.7863 265.741 46.091C265.479 46.2297 265.161 46.354 264.791 46.4626C264.089 46.7043 263.32 46.9342 262.615 47.1814C261.91 47.4285 261.114 47.6061 260.332 47.8098C259.167 48.0516 257.908 48.2604 256.561 48.4351C255.728 48.5882 254.872 48.7373 254.102 48.9133C253.191 49.1116 252.122 49.254 250.92 49.3369C249.858 49.4362 248.91 49.5831 248.093 49.7747C248.007 49.7955 247.94 49.8218 247.891 49.8531C247.745 50.0485 247.332 50.1862 246.718 50.2452C246.755 50.3024 246.803 50.3606 246.86 50.4195C246.946 50.4897 246.964 50.5553 246.911 50.608C246.86 50.6606 246.74 50.6979 246.568 50.7148C246.077 50.7632 245.668 50.8454 245.361 50.9578C245.248 50.9859 245.178 51.027 245.156 51.0774C245.136 51.1278 245.163 51.186 245.239 51.2471C245.306 51.3099 245.311 51.3677 245.253 51.413C245.195 51.4584 245.078 51.4891 244.916 51.5012C244.5 51.5607 244.054 51.6085 243.582 51.6445C242.577 51.7237 241.409 51.7227 240.147 51.6417C240.013 51.6182 239.878 51.6543 239.721 51.6269C238.828 51.5361 238 51.522 237.335 51.5864C236.556 51.6115 235.741 51.6065 234.918 51.6183C233.731 51.6104 232.636 51.6582 231.663 51.7603C230.551 51.6616 229.926 51.8332 228.988 51.8365C228.121 51.8541 227.3 51.8963 226.532 51.9629C225.293 52.0511 224.059 52.1282 222.838 52.2315C221.693 52.2807 220.639 52.3748 219.693 52.5122C219.331 52.5742 218.675 52.4776 218.427 52.6076C218.18 52.7377 217.683 52.7223 217.28 52.7655L216.009 52.8721C215.791 52.8974 215.551 52.9135 215.292 52.92C214.112 52.9287 213.293 53.1024 212.197 53.1378L212.085 53.1183C210.139 53.3764 207.911 53.5181 205.469 53.5392C204.042 53.6184 202.481 53.6146 200.967 53.6726C200.606 53.7887 199.753 53.6456 199.3 53.7516C198.847 53.8576 198.107 53.7882 197.523 53.8056C196.939 53.823 196.368 53.8666 195.744 53.8651C195.202 53.8656 194.744 53.9129 194.412 54.0028C193.655 54.1514 192.733 54.2387 191.685 54.2609C190.299 54.2995 188.989 54.3872 187.579 54.3679C187.599 54.4762 187.513 54.5683 187.329 54.6348C187.144 54.7013 186.869 54.7397 186.531 54.7462C185.024 54.7875 183.657 54.8951 182.129 54.927L181.721 54.9273L177.153 54.9894C175.923 55.0014 174.737 55.0213 173.482 55.0349C173.012 54.9528 173.001 55.0942 172.675 55.0672C172.584 54.9976 172.477 54.9669 172.317 55.0047L172.282 55.0881L167.069 55.1988C165.028 55.2798 162.881 55.3041 160.647 55.2715C160.116 55.2797 159.622 55.3073 159.171 55.354C158.751 55.371 158.315 55.3786 157.864 55.3765C157.252 55.3555 156.655 55.3449 156.075 55.3447C154.547 55.3766 152.945 55.3594 151.272 55.3361C149.6 55.3127 148.333 55.3542 146.844 55.351C145.837 55.3481 144.833 55.3341 143.79 55.3012C143.292 55.2858 142.678 55.2025 142.162 55.1721C141.646 55.1417 141.478 55.1422 141.41 55.19C141.185 55.324 140.621 55.2373 140.17 55.2243C139.29 55.202 139.165 55.1563 138.926 54.81L140.005 54.6999C140.27 54.6644 140.603 54.6582 140.972 54.6818C141.34 54.7054 141.733 54.7581 142.111 54.8349C142.26 54.8677 142.416 54.8937 142.569 54.9113C142.723 54.9289 142.871 54.9377 143.005 54.9373C144.095 54.9185 145.169 54.8791 146.215 54.847L146.369 54.8259L146.378 54.5171C146.24 54.4867 146.096 54.4617 145.953 54.4428L140.702 54.2424C139.498 54.1932 138.247 54.0822 137.065 54.0369C135.882 53.9916 135.244 53.9639 134.328 53.9171C133.94 53.8905 133.545 53.8555 133.145 53.8123C133.169 53.7826 133.182 53.7509 133.186 53.7177C133.206 53.6677 133.235 53.6009 133.065 53.5473C132.88 53.4718 132.632 53.4072 132.372 53.3666C132.127 53.3398 131.89 53.3246 131.67 53.3216C130.605 53.2957 129.389 53.1326 128.28 52.867L127.894 53.0443C126.23 52.9447 124.541 52.8467 122.802 52.7521C122.454 52.7263 122.089 52.6768 121.733 52.6073C121.353 52.5408 121.003 52.402 120.602 52.3261C120.207 52.2714 119.813 52.2288 119.43 52.199C119.534 52.1534 119.671 52.1169 119.836 52.0908C119.999 52.0816 120.117 52.0531 120.175 52.0094C120.232 51.9657 120.225 51.9091 120.154 51.8478C120.031 51.7425 119.976 51.6434 120.246 51.6308C120.495 51.6068 120.673 51.5548 120.76 51.481C120.846 51.4072 120.836 51.3147 120.733 51.2143C120.687 51.1556 120.656 51.0981 120.637 51.0423L120.525 51.0227C120.156 50.8149 119.419 50.7398 118.889 50.5698C118.64 50.5204 118.381 50.4921 118.155 50.4891C117.569 50.4526 116.999 50.4366 116.394 50.3906C116.105 50.3694 115.802 50.3308 115.504 50.2771C115.079 50.2028 115.034 50.195 114.787 49.9249C115.171 49.9296 115.475 49.8893 115.648 49.8107C115.821 49.7321 115.853 49.6201 115.737 49.4937C115.421 49.2174 115.086 48.9262 113.655 48.7299C114.122 48.7202 114.572 48.701 115.001 48.6723C115.126 48.6662 115.22 48.6459 115.269 48.6142C115.319 48.5825 115.322 48.5409 115.279 48.495C115.235 48.4491 115.147 48.401 115.026 48.3573C114.906 48.3136 114.757 48.2762 114.602 48.2502C113.846 48.094 113.058 47.9894 112.326 47.9483C111.709 47.9301 111.152 47.9403 110.431 47.9398L109.58 47.7912C109.594 47.7578 109.47 47.7121 109.501 47.6938C109.717 47.5225 109.956 47.3552 110.201 47.1711C109.809 47.0717 109.47 46.9518 109.221 46.8249C108.973 46.6981 108.826 46.5695 108.797 46.454C108.775 46.4191 108.781 46.3873 108.813 46.3609C108.845 46.3345 108.902 46.3141 108.981 46.3011C109.205 46.2787 109.378 46.236 109.486 46.1763C109.594 46.1165 109.636 46.0413 109.607 45.9564L108.945 45.6438C106.953 45.4207 104.997 45.2614 103.113 45.1687L101.412 45.0986C101.207 45.0149 101.271 44.9783 101.464 44.9762C101.657 44.974 102.2 44.9972 102.579 45.0097C102.907 45.0261 103.198 45.0153 103.424 44.9784C103.649 44.9415 103.803 44.8797 103.869 44.7991L103.298 44.4425C103.326 44.3758 103.366 44.2812 103.676 44.2875C103.888 44.2798 104.043 44.2462 104.118 44.1921C104.193 44.1381 104.183 44.0667 104.089 43.9895C104.075 43.9337 104.096 43.8828 104.152 43.8393C104.61 43.8357 105.066 43.8376 105.482 43.8207C105.675 43.815 105.839 43.7944 105.961 43.7601C106.084 43.7258 106.162 43.6786 106.19 43.6219C106.205 43.5665 106.169 43.5034 106.084 43.4377C105.999 43.372 105.867 43.3056 105.7 43.2437C105.049 43.1672 104.453 43.1662 104.044 43.241C103.898 43.2996 103.663 43.3316 103.371 43.3328C103.079 43.334 102.743 43.3043 102.406 43.2477C102.022 43.1824 101.638 43.1537 101.325 43.1668C101.011 43.1798 100.788 43.2338 100.695 43.3189C100.3 43.2859 99.9501 43.2606 99.6055 43.2242C99.1978 43.1783 98.8134 43.1647 98.4922 43.1851C97.9788 43.1994 97.425 43.191 96.845 43.1601C95.1708 43.0827 93.4953 43.011 91.875 42.9788C91.446 42.9696 91.0751 42.9944 90.6511 42.9741C90.2271 42.9538 89.8917 43.0086 89.3613 42.8981C89.2606 42.8809 89.1592 42.8699 89.0649 42.8659C88.9705 42.8619 88.8862 42.865 88.8188 42.8749C87.8878 42.9623 86.7958 42.9747 85.6073 42.9113C83.98 42.8957 82.2923 42.8518 80.6628 42.8418C80.1842 42.8504 79.7325 42.8734 79.312 42.9105C78.9922 42.933 78.6568 42.9482 78.3079 42.9561C78.0406 42.9631 77.7846 42.9424 77.83 43.0637C77.8747 43.1851 77.4748 43.1091 77.2436 43.0867C76.4501 43.0279 75.6396 42.9482 74.8206 42.8486C74.0137 42.7404 73.2223 42.6774 72.4955 42.6635C71.9701 42.6553 71.4283 42.6862 70.7534 42.5204C70.7791 42.4592 70.8048 42.398 70.9518 42.3341C70.4011 42.1583 69.7728 42.007 69.1188 41.8928C68.4648 41.7786 67.804 41.7047 67.191 41.6772L66.3456 41.3445C66.1375 41.3054 65.925 41.2769 65.721 41.2608C65.5172 41.2447 65.3261 41.2413 65.1594 41.2507C65.0307 41.2556 64.8738 41.2432 64.7175 41.2159C64.5612 41.1886 64.4161 41.1482 64.3088 41.1022C64.1483 41.0436 63.9522 40.993 63.7451 40.9569C63.538 40.9207 63.3292 40.9005 63.1447 40.8988C62.5639 40.8626 61.9438 40.7791 61.3481 40.6567C61.1935 40.585 61.0967 40.5108 61.0695 40.4435C61.0423 40.3761 61.086 40.3185 61.1951 40.2776C61.3711 40.2055 61.4699 40.1136 61.4855 40.0076C61.5012 39.9015 61.4334 39.7834 61.2862 39.6605C61.2108 39.5851 61.1857 39.5136 61.2122 39.4505C61.2387 39.3874 61.3164 39.3339 61.4405 39.2933C61.9039 39.1055 61.78 39.0003 61.0218 38.6887C60.8987 38.6368 60.7502 38.5882 60.5859 38.5461C60.4216 38.5041 60.2449 38.4694 60.0672 38.4443C59.6503 38.3935 59.239 38.3558 58.841 38.3317C58.6171 38.2926 58.3876 38.3241 58.1296 38.309C56.8399 38.233 56.6512 38.1104 56.2335 37.8464L55.9291 37.6559C55.3645 37.5015 54.7471 37.3734 54.1213 37.2806C53.4954 37.1878 52.8768 37.1327 52.31 37.1193C52.0846 37.1183 51.8256 37.0919 51.5725 37.0442C50.749 36.8984 49.915 36.7975 49.1258 36.7482C48.634 36.7205 48.1039 36.6487 47.5991 36.5414C47.0943 36.4342 46.6362 36.2961 46.28 36.1437C45.9601 36.0064 45.5415 35.8832 45.0826 35.7912C44.5453 35.6974 44.4955 35.5872 44.7955 35.5022C45.0955 35.4173 45.5981 35.3079 46.0441 35.2186C46.1993 35.1883 46.2955 35.1389 46.3219 35.0761C46.3483 35.0132 46.3039 34.9393 46.1937 34.8626C46.1229 34.7313 46.1107 34.6067 46.1572 34.4919C46.1821 34.4442 46.1649 34.3895 46.1069 34.3314C46.0489 34.2734 45.9513 34.2134 45.8207 34.1556C45.6902 34.0977 45.5298 34.0432 45.3503 33.9959C45.1707 33.9485 44.9762 33.9094 44.7799 33.8811C43.9516 33.7364 43.1458 33.5956 42.3011 33.4899C41.9471 33.4401 41.5935 33.3783 41.2489 33.3061C40.5436 33.1276 39.7891 32.9796 39.0291 32.8706C38.6683 32.8219 38.3157 32.7367 38.0474 32.6335C37.2012 32.3554 36.4216 32.063 35.7225 31.7616C35.554 31.6681 35.3336 31.5769 35.0749 31.4937C34.8163 31.4105 34.5251 31.3371 34.2196 31.2781C33.9734 31.2351 33.7729 31.1404 33.5831 31.0774C33.4452 30.9315 33.4304 30.7965 33.5403 30.6851C33.6502 30.5737 33.881 30.4896 34.2111 30.4406C34.5242 30.3818 34.8172 30.3135 35.0878 30.2414C35.414 30.183 35.8018 30.148 36.2369 30.1375C36.752 30.1062 37.133 30.0166 37.3301 29.8805C35.9197 29.6342 34.5785 29.2805 33.3424 29.3632L32.4031 29.1394C32.4405 29.0504 32.4732 28.9725 32.5036 28.9002C32.727 28.7685 32.7968 28.6025 32.707 28.4161C32.633 28.326 32.6397 28.244 32.7264 28.1784C32.813 28.1128 32.9765 28.0659 33.2005 28.0425C34.5269 27.8024 36.0607 27.6403 37.3046 27.3679C37.6946 27.3168 38.1512 27.2935 38.6551 27.2992C39.1426 27.2828 39.1222 27.1598 38.5612 27.0081C38.2463 26.9288 37.9254 26.8528 37.5995 26.7804C36.1628 26.7683 35.5776 27.1319 33.9381 27.0307L33.1782 26.5516C32.9727 26.5442 32.7732 26.5413 32.5812 26.5429L29.8321 26.7375C29.6031 26.7473 29.4249 26.7806 29.3176 26.8336C29.2104 26.8867 29.1784 26.9574 29.2254 27.0377C29.244 27.1359 29.2061 27.226 29.1131 27.3047C29.0532 27.3598 29.0916 27.4331 29.2198 27.5085C29.5088 27.6784 29.138 27.7032 28.9037 27.7459C28.8439 27.7501 28.7749 27.7496 28.7007 27.7446C28.6265 27.7395 28.5486 27.73 28.4716 27.7166C28.3945 27.7031 28.3198 27.686 28.2518 27.6662C28.1839 27.6464 28.1239 27.6243 28.0755 27.6012C27.6628 27.4396 27.3019 27.269 26.8963 27.0907C27.1843 26.92 26.8455 26.6399 27.2948 26.4855C27.3451 26.4546 27.3652 26.417 27.3539 26.375C27.3427 26.333 27.3002 26.2874 27.2293 26.2411C27.0463 26.1216 26.9591 26.005 26.9766 25.9032C26.9941 25.8014 27.1156 25.718 27.3288 25.6613L27.3545 25.6001C26.7921 25.3944 26.9411 25.2114 26.7203 24.9937L26.1793 24.8514C24.8335 24.5088 24.8311 24.5144 23.6724 24.527C23.4388 24.3966 23.7356 24.3768 23.9581 24.3619L25.8218 24.2156C27.0403 24.1179 28.2942 24.0503 29.6554 24.0133C31.0165 23.9764 32.5341 23.8532 33.941 23.7646C34.0121 23.7577 34.0666 23.7441 34.0997 23.725C34.1328 23.7058 34.1436 23.6816 34.1314 23.6545C34.0755 23.6251 34.0022 23.5968 33.9172 23.5716C33.8321 23.5464 33.7374 23.525 33.6399 23.5089C33.1922 23.4307 32.7328 23.3803 32.2557 23.3149L31.3662 23.2014L31.0926 23.0521C30.9145 22.9612 30.7928 22.8504 30.5559 22.7851C30.3607 22.7365 30.1488 22.6995 29.9422 22.6781C29.7356 22.6568 29.5421 22.6517 29.3815 22.6636C28.9365 22.6934 28.5339 22.7365 28.1089 22.7758C27.6839 22.815 27.4497 22.8577 27.0812 22.8769C26.3324 22.8857 25.6088 22.9088 24.9135 22.9462C24.3278 23.0347 23.7861 23.1396 23.2918 23.2601C22.9834 23.3078 22.695 23.3649 22.1684 23.3028C21.9186 23.2465 21.7031 23.1725 21.5602 23.094C21.4172 23.0154 21.3561 22.9374 21.3876 22.8738C21.4158 22.8239 21.4958 22.7845 21.62 22.7591C21.7441 22.7338 21.9083 22.7234 22.0972 22.729C22.6257 22.7198 23.1145 22.689 23.5537 22.637C24.1648 22.5429 24.9089 22.5023 25.7423 22.5177C26.025 22.5312 26.2144 22.4807 26.4617 22.4642C26.709 22.4476 26.9184 22.4066 27.1941 22.4368C28.0504 22.5147 28.461 22.3953 28.9742 22.3178C29.1479 22.2834 29.2555 22.2278 29.2852 22.1571C29.3149 22.0864 29.2656 22.0034 29.1426 21.9172C28.9057 21.7455 28.6159 21.5728 28.2778 21.4019C28.1038 21.3178 27.8809 21.238 27.6265 21.1688C27.3721 21.0995 27.0931 21.0425 26.8116 21.0024C26.6431 20.8973 26.5532 20.7939 26.5501 20.7016C26.5469 20.6092 26.6306 20.531 26.7936 20.4738C27.2089 20.3432 27.577 20.2105 28.5075 20.2834C28.945 20.3113 29.3567 20.3166 29.7264 20.2992C30.5461 20.2754 31.4918 20.3276 32.4742 20.4507C32.7283 20.4823 32.9781 20.5038 33.2162 20.5146C34.9145 20.5903 36.5326 20.6281 38.1554 20.6547C39.0151 20.6675 39.8817 20.6637 40.7792 20.701C42.8838 20.7819 44.7996 20.7403 46.831 20.7667C47.8949 20.7802 48.8472 20.7257 49.6379 20.606C49.7919 20.5658 49.9241 20.519 50.0331 20.466C49.5091 20.3269 48.9336 20.2168 48.3616 20.1461C47.7896 20.0755 47.2403 20.0468 46.7664 20.0626C46.5059 20.1016 46.1692 20.1087 45.7938 20.0832C45.4184 20.0577 45.0191 20.0006 44.6405 19.9182L45.7414 19.8716C46.4714 19.8499 47.2191 19.8431 47.9292 19.8118C49.0571 19.758 50.1025 19.6719 51.2705 19.637C52.2135 19.605 53.0574 19.523 53.7757 19.3938C54.2946 19.2995 54.8872 19.2327 55.5415 19.1946C56.0065 19.1743 56.0065 19.1743 56.3039 18.9814C56.068 18.8566 55.763 18.8391 55.4756 18.8367C53.753 18.7582 52.1136 18.7444 50.5909 18.7957C49.8226 18.8003 49.141 18.8532 48.5789 18.9519C48.4412 18.9936 48.089 18.9738 47.8064 18.9603C46.9203 18.9397 46.0734 18.9457 45.2758 18.9782C44.1732 19.0323 42.9451 19.0194 41.6393 18.9402C41.3917 18.8432 41.6767 18.8512 41.6907 18.8178C42.7021 18.7555 43.6934 18.6838 44.7248 18.6311C45.0068 18.6123 45.3081 18.603 45.6256 18.6033C46.8106 18.636 47.7982 18.5454 48.4498 18.3441C48.4825 18.2662 48.9112 18.2754 49.1006 18.2249C49.1938 18.1812 49.2559 18.1297 49.285 18.072C49.009 17.9282 48.697 17.9274 48.4568 17.9273C47.7597 17.9433 47.089 17.9738 46.4481 18.0184C45.8524 18.0609 45.1928 18.0722 44.4875 18.0522C43.967 18.0329 43.5219 18.0627 42.9967 18.0545C42.7118 18.0374 42.4169 18.01 42.1179 17.9727C42.4508 17.8725 42.9032 17.8109 43.4434 17.7922C43.853 17.7323 44.3652 17.7143 44.4306 17.5585C44.2372 17.4471 44.0217 17.4453 43.8486 17.4568C43.4883 17.4564 43.1404 17.4634 42.8065 17.4779C42.0986 17.5095 41.3321 17.51 40.5232 17.4792C40.0972 17.4677 39.693 17.4711 39.3174 17.4895C38.466 17.514 37.6502 17.5686 36.8707 17.5937C35.2739 17.6194 33.8176 17.7114 32.2833 17.7599C31.9419 17.7719 31.6358 17.814 31.1857 17.7414C30.7357 17.6687 30.7157 17.6593 30.6625 17.6141C30.5366 17.5389 30.4984 17.4659 30.5559 17.4104C30.6452 17.3585 30.8191 17.3296 31.0467 17.3289C32.4182 17.2464 33.7191 17.1305 34.9412 16.9819C35.4789 16.9522 35.9501 16.8915 36.3383 16.802C36.6462 16.7403 37.0114 16.6995 37.4225 16.6808C38.0204 16.6362 38.6437 16.6036 39.2899 16.583C39.5905 16.5719 39.8461 16.5389 40.0418 16.4858C40.2374 16.4328 40.369 16.3609 40.4288 16.2743L39.6366 15.9866C39.5122 15.9732 39.3887 15.9616 39.2668 15.9519L32.6917 16.1591L32.0405 16.1648C31.3269 16.1476 31.1525 16.1052 30.4755 15.772C32.0205 15.6936 33.2349 15.4651 33.998 15.1092C33.8146 15.071 33.6266 15.0381 33.4384 15.0115C32.2037 14.9273 31.0365 14.905 29.9819 14.9453C29.3554 14.9493 28.7113 14.9383 28.0648 14.9329C28.2539 14.7688 28.9782 14.8177 29.4503 14.7807C30.5783 14.7229 31.5758 14.6033 32.4109 14.4259C32.6988 14.3568 33.059 14.3125 33.475 14.2953C33.8913 14.2893 34.239 14.2475 34.488 14.1733C34.7369 14.0992 34.8795 13.995 34.9032 13.8699C34.9424 13.7566 35.027 13.6514 35.1555 13.5557C34.9281 13.4199 34.567 13.2899 34.14 13.19C33.713 13.0901 33.2495 13.0273 32.8364 13.0132C31.9544 12.9573 31.0396 12.8658 30.1153 12.741C29.6549 12.6781 29.2034 12.6419 28.7902 12.635C28.4258 12.6296 28.0116 12.5842 27.6108 12.5055C27.21 12.4269 26.8445 12.3194 26.5703 12.1995C26.2 12.0512 25.8545 11.9013 25.509 11.7513C25.1636 11.6014 24.7627 11.412 24.3593 11.228C24.0037 11.1993 23.6575 11.1808 23.3253 11.1728C23.0668 11.1796 22.7651 11.1595 22.456 11.1151C22.1468 11.0706 21.843 11.0035 21.5804 10.9218C21.7344 10.8412 21.9086 10.7701 22.0919 10.6767C21.8402 10.5534 21.6577 10.4277 21.5554 10.3072C21.4533 10.1867 21.4335 10.0739 21.4975 9.97571C21.5349 9.88669 21.2612 9.73736 21.1666 9.61932C21.0449 9.51756 21.0221 9.4226 21.101 9.34688C21.18 9.27116 21.3572 9.21822 21.6093 9.195C21.922 9.15215 22.1765 9.08762 22.3624 9.00405C22.4239 8.98236 22.4551 8.95265 22.4534 8.91764C22.4517 8.88263 22.4169 8.84344 22.3524 8.80365C22.2878 8.76387 22.1955 8.72475 22.0839 8.68988C21.9723 8.65501 21.845 8.6255 21.7135 8.60406C21.3108 8.54326 20.9109 8.50385 20.5367 8.48809C19.8921 8.45911 19.275 8.44091 18.6854 8.43348C18.0333 8.42229 17.3079 8.35328 16.5828 8.23344C15.9335 8.12005 15.3515 8.01838 15.0341 7.80169C14.7167 7.58501 14.2091 7.59191 13.8188 7.43417C14.0381 7.29197 14.4277 7.19318 14.9485 7.14775C15.2893 7.13153 15.5737 7.08897 15.7836 7.02278C15.9935 6.9566 16.1242 6.86826 16.1673 6.76343L14.9824 6.32358C14.0362 6.1165 13.5127 6.27588 12.4903 6.19286L13.5437 6.03049C13.5649 6.01444 13.5728 5.99559 13.5671 5.97485C13.4648 5.64644 13.3021 5.57622 12.2252 5.3941L11.6209 5.28853L10.6642 5.16325C10.511 5.09594 10.405 5.02576 10.3569 4.95971C10.3088 4.89366 10.3201 4.83406 10.3899 4.78688C10.5301 4.70752 10.5726 4.60612 10.5138 4.492C10.421 4.41641 10.4133 4.34673 10.4921 4.29504C10.5709 4.24334 10.7312 4.21291 10.9451 4.20903C11.1158 4.20301 11.1285 4.11565 11.2214 4.06618C11.3137 3.998 11.4717 3.94568 11.6845 3.91278C11.8973 3.87988 12.16 3.86717 12.4549 3.87553C13.324 3.88236 14.1405 3.85677 14.8899 3.7992L14.7555 3.77574C15.5366 3.82628 16.2668 3.8324 16.9106 3.79383C17.5557 3.74528 18.3837 3.77642 19.069 3.74681C19.6268 3.75361 20.0516 3.68641 20.253 3.55948C20.4481 3.43829 21.1571 3.46657 21.7001 3.48974C22.0217 3.50473 22.3325 3.51108 22.6293 3.50872C23.0276 3.48129 23.5256 3.50714 24.0402 3.58198C24.1947 3.60498 24.3468 3.61715 24.482 3.61732C25.7903 3.64878 27.0963 3.68579 28.387 3.70221C28.685 3.69276 29.0343 3.71441 29.3941 3.76463C29.5453 3.78643 29.6925 3.79547 29.8158 3.79051C31.8552 3.74063 34.1565 3.86789 36.1559 3.79907C36.3982 3.78281 36.6664 3.77943 36.9531 3.78902C37.5972 3.82945 38.1565 3.80343 38.5461 3.71492C38.7563 3.66784 39.0259 3.6419 39.3375 3.63874C39.6491 3.63559 39.996 3.6553 40.356 3.69661C40.9551 3.75131 41.5088 3.75724 41.9587 3.71378C42.8359 3.67363 43.7583 3.65712 44.7189 3.66438C45.0132 3.6714 45.2718 3.6558 45.4749 3.61877C45.678 3.58175 45.82 3.5243 45.8899 3.45087C45.654 3.32606 45.3961 3.31088 45.1511 3.32185C44.202 3.29341 43.255 3.2594 42.3235 3.246C41.4897 3.20771 40.6898 3.19601 39.9353 3.21106C39.5607 3.22804 39.0932 3.18933 38.6349 3.10337C38.0732 2.99451 37.4947 2.94043 37.0164 2.95206C36.6618 2.95495 36.2874 2.94557 35.8988 2.92407C35.65 2.89813 35.3951 2.8536 35.1601 2.79504C35.0668 2.76961 34.9653 2.74822 34.862 2.73225C34.7588 2.71628 34.6561 2.70609 34.5605 2.70231C34.4649 2.69853 34.3783 2.70124 34.3066 2.7103C34.2348 2.71935 34.1794 2.73453 34.1437 2.75487C33.7839 2.92493 32.9793 2.83815 32.2904 2.81934C31.2579 2.53151 30.4896 2.70187 29.5246 2.5393C29.4483 2.52852 29.3731 2.52199 29.3037 2.52013C29.2342 2.51827 29.1719 2.5211 29.1207 2.52846C27.2533 2.62631 25.0769 2.54476 23.1163 2.57855C22.9001 2.58349 22.6491 2.56656 22.3919 2.52967C20.7112 2.28553 19.0952 2.21621 17.86 2.33529C17.7097 2.34601 17.5387 2.34647 17.3549 2.33664C16.5103 2.23961 15.7026 2.20092 14.9993 2.22381C13.897 2.21642 12.8373 2.22241 11.7173 2.19998C10.9453 2.16807 10.2681 2.20216 9.7534 2.29887C9.73702 2.33782 9.39417 2.29585 9.13159 2.29179C8.98056 2.19374 8.84959 2.10519 8.69387 2.01827C8.55468 1.91074 8.3462 1.80192 8.08256 1.69921C7.81892 1.59649 7.50636 1.50228 7.16592 1.42293C6.58389 1.32127 6.52568 1.17375 6.93296 1.11947C7.98272 0.939908 9.3027 0.866415 10.796 0.904386C12.0442 0.90742 13.3149 0.914371 14.5808 0.932444C15.3193 0.947948 16.0976 0.982385 16.816 0.988415C17.0584 1.00167 17.3074 1.02119 17.5604 1.04678C17.8709 1.08388 18.1724 1.1041 18.4486 1.10635C19.3353 1.0751 20.325 1.10232 21.3704 1.18671C21.7533 1.20511 22.1209 1.21131 22.4679 1.20522C23.2888 1.18232 24.1787 1.19917 25.1141 1.25535C25.6955 1.28703 26.2592 1.30359 26.7994 1.30487C26.9902 1.30833 27.1456 1.28172 27.3293 1.30187C28.9468 1.51272 30.0921 1.36042 31.5478 1.4415C32.2553 1.46411 32.9313 1.46417 33.5662 1.4417C34.8052 1.44278 36.0788 1.4659 37.3818 1.51095C39.1048 1.58497 40.7015 1.55929 42.3467 1.58985C42.6715 1.59627 42.9852 1.59518 43.2852 1.58657C44.7453 1.52969 46.3311 1.54175 48.004 1.62246C48.3838 1.63412 48.725 1.61986 49.0061 1.58059C49.2872 1.54132 49.5023 1.47787 49.6377 1.39423C49.695 1.33682 49.6579 1.26226 49.5335 1.18492C49.327 1.08615 49.0938 0.989381 48.8378 0.896201L39.5256 0.583523C39.1345 0.567196 38.7531 0.558405 38.3834 0.557191C37.2958 0.554473 36.1748 0.530148 35.0258 0.484339C33.8905 0.441309 32.8059 0.448947 31.706 0.435992C31.3821 0.431652 31.0495 0.421412 30.7097 0.405302C28.4132 0.277799 26.1738 0.199923 24.0073 0.172229C23.0959 0.1683 22.1113 0.109784 21.1821 0.0908177C20.2529 0.0718498 18.9823 0.0649069 17.88 0.057514L14.4674 0.0586483C13.7962 0.0548758 13.1426 0.0661353 12.4915 0.0718353C11.7013 -0.334928 11.4289 -0.430269 10.3744 -0.608477C10.0137 -0.674214 9.64675 -0.713443 9.31667 -0.721572C8.26991 -0.689417 6.95645 -0.823271 5.9638 -0.80555C5.36482 -0.814291 4.85656 -0.769104 4.49105 -0.674613C4.17376 -0.600456 3.81094 -0.541777 3.40819 -0.499463C2.3049 -0.847439 2.20767 -1.07344 3.0376 -1.16139C3.26245 -1.18183 3.57217 -1.17551 3.73454 -1.21881C3.82771 -1.24518 3.95498 -1.26026 4.10622 -1.26287C4.25747 -1.26548 4.42848 -1.25554 4.60588 -1.23383C5.16573 -1.17689 5.69048 -1.16349 6.12747 -1.195C6.53872 -1.2367 7.04282 -1.23503 7.59116 -1.19016C7.99414 -1.11978 8.34833 -1.21916 8.69678 -1.24787C9.04523 -1.27659 9.3312 -1.32816 9.8755 -1.25101C9.9752 -1.23565 10.0741 -1.22643 10.1647 -1.22405C10.2554 -1.22168 10.3353 -1.22622 10.3984 -1.23732C10.983 -1.287 11.6806 -1.28178 12.4345 -1.22208C13.5909 -1.16333 14.6758 -1.16113 15.6517 -1.21555C16.2358 -1.26316 16.734 -1.3476 17.1265 -1.46557C17.2335 -1.50503 17.3923 -1.52869 17.5878 -1.53428C18.5697 -1.50967 19.6359 -1.41703 20.7175 -1.26235C21.125 -1.20037 21.532 -1.15134 21.9297 -1.11631C22.7471 -1.0385 23.5378 -0.994901 24.2782 -0.986797C25.354 -0.985513 26.4742 -0.955575 27.6287 -0.897253C28.3411 -0.86478 29.0277 -0.852795 29.6801 -0.861427C30.3507 -0.865496 31.0667 -0.840726 31.8118 -0.787691C32.5529 -0.744474 33.2059 -0.769374 33.6922 -0.859381C33.8523 -0.907882 33.9813 -0.965476 34.0767 -1.03109C32.9917 -1.24459 31.8697 -1.3531 30.9363 -1.33475C30.5818 -1.3489 30.2875 -1.33462 29.9139 -1.41778L29.9022 -1.38996C29.8279 -1.37191 29.7157 -1.36766 29.5872 -1.378C29.4585 -1.38835 29.3225 -1.41257 29.205 -1.44606C29.2494 -1.55177 29.2915 -1.65191 29.3219 -1.72424C30.033 -1.71148 30.7234 -1.71251 31.3897 -1.72735C31.9513 -1.74869 32.7138 -1.56177 33.1999 -1.63213C34.1482 -1.54414 34.7519 -1.66563 35.6022 -1.63057C36.4525 -1.59552 37.3891 -1.47971 38.2394 -1.44466C38.9814 -1.42542 39.7018 -1.42124 40.3968 -1.43213C40.6366 -1.44742 40.9131 -1.44384 41.2093 -1.42159C41.6257 -1.37974 42.013 -1.37272 42.3268 -1.40136C42.6405 -1.42999 42.8681 -1.49312 42.9835 -1.5835C42.8748 -1.66816 42.7285 -1.77732 42.5598 -1.8904C42.8702 -1.98332 43.3416 -2.02244 43.9042 -2.00195L44.6991 -2.00644C44.9097 -2.00399 45.0707 -2.02911 45.1488 -2.0766C45.2269 -2.1241 45.2162 -2.19033 45.1187 -2.26161C43.6115 -2.62042 43.556 -2.65997 42.4497 -2.42918L40.981 -2.53643L41.0057 -2.53807ZM243.912 36.6229L243.886 36.6841L243.914 36.6173L244.16 36.6603L244.176 36.6214L243.912 36.6229ZM208.159 9.79889C207.811 9.73212 207.46 9.67074 207.107 9.61511C207.014 9.60649 206.929 9.60454 206.855 9.60943C206.782 9.61433 206.724 9.62591 206.687 9.64322C206.658 9.70998 206.855 9.7563 207.034 9.78758C207.26 9.82968 207.491 9.85644 207.703 9.86509C207.915 9.87373 208.1 9.86397 208.24 9.83678L208.442 9.81242L208.159 9.79889ZM28.8868 26.0708C29.116 26.082 29.3332 26.0839 29.5333 26.0762C30.4211 26.0223 31.271 25.9438 32.1811 25.8937C33.3295 25.7667 34.649 25.7149 36.0902 25.7404C36.6533 25.7529 37.129 25.7117 37.4618 25.6217C37.661 25.5734 37.9182 25.5451 38.2175 25.5387L42.0277 25.392C42.2632 25.3616 42.4669 25.3189 42.6338 25.265C42.298 25.2063 42.0742 25.1672 41.9399 25.1438C41.6611 25.1372 41.4216 25.155 41.2453 25.1956C41.0558 25.2644 40.7356 25.2916 40.3481 25.2718C39.9571 25.2555 39.5756 25.2467 39.2058 25.2455C38.5075 25.2489 37.8045 25.2635 37.1039 25.2725C36.8312 25.4638 36.0267 25.377 35.3377 25.3582L34.8055 25.3667C33.0658 25.4659 31.4039 25.6023 29.828 25.7753C29.5233 25.8046 29.261 25.8513 29.0488 25.914C28.9689 25.9628 28.9433 26.0238 28.974 26.092L28.8621 26.0724L28.8868 26.0708ZM106.577 44.3584C107 44.3714 107.439 44.3982 107.89 44.4383C108.237 44.4792 108.575 44.5041 108.892 44.5118C110.667 44.5547 112.516 44.6537 114.415 44.8076C114.663 44.8309 114.901 44.8423 115.121 44.8414L116.675 44.8024C117.165 44.7804 117.175 44.7582 116.818 44.463C116.522 44.4057 116.223 44.3534 115.922 44.3066C115.744 44.2753 115.453 44.2245 115.384 44.2723C114.969 44.4028 114.212 44.3183 113.575 44.2906C111.73 44.2193 109.828 44.114 107.966 44.0276C107.572 44.0065 107.191 43.9958 106.826 43.9957C106.599 43.9913 106.393 43.9996 106.215 44.0204C106.163 44.0225 106.119 44.0287 106.087 44.0385C106.055 44.0483 106.035 44.0616 106.028 44.0773C106.021 44.0931 106.028 44.1111 106.049 44.1301C106.069 44.149 106.101 44.1685 106.145 44.1873C106.297 44.253 106.473 44.3159 106.667 44.374L106.577 44.3584ZM120.088 1.51666L121.905 1.48167C122.123 1.47791 122.308 1.43852 122.541 1.45537C123.785 1.50876 124.937 1.49389 125.948 1.41139C126.291 1.37772 126.694 1.37099 127.133 1.39156C128.478 1.45253 129.745 1.45504 130.903 1.39901C131.651 1.38777 132.351 1.35001 132.992 1.28629C133.042 1.27149 133.072 1.25141 133.083 1.22741C133.093 1.20341 133.082 1.17605 133.051 1.1472C133.043 1.12897 133.021 1.10936 132.987 1.08973C132.952 1.0701 132.907 1.05089 132.852 1.03345C132.797 1.01602 132.736 1.00076 132.672 0.988721C132.607 0.976684 132.542 0.968153 132.48 0.963726C131.668 0.877473 130.899 0.847425 130.233 0.87602C129.616 0.910233 128.952 0.920246 128.251 0.905899C127.579 0.902125 127.124 1.01369 126.294 0.928562C125.944 0.900528 125.634 0.909757 125.419 0.9547C124.984 1.0292 124.378 1.03334 123.707 0.966393C123.306 0.932513 122.923 0.917985 122.572 0.92336C121.721 0.947852 120.907 0.996853 120.119 1.0442C119.87 1.05516 119.603 1.05667 119.324 1.0487L115.374 0.955987C114.425 0.927546 113.477 0.893542 112.546 0.880138C111.784 0.851036 111.075 0.860151 110.444 0.907163C109.771 0.956573 109.038 0.976632 108.256 0.966962C107.044 0.994003 105.838 1.00434 104.517 1.00071C103.676 1.00294 102.813 0.995713 101.934 0.97344C101.489 0.944772 101.111 0.968117 100.873 1.03898C100.729 1.09732 100.388 1.04979 100.105 1.03625C98.5979 0.905757 97.1839 0.874837 95.9622 0.945643C95.8062 0.957183 95.6353 0.96136 95.4523 0.958104C94.276 0.955674 93.057 0.939857 91.9282 0.939682C91.6303 0.945184 91.351 0.960278 91.0921 0.984776C91.1198 1.02475 91.1985 1.06807 91.3127 1.10575C91.4268 1.14344 91.5665 1.1726 91.7041 1.18719C92.772 1.29885 93.803 1.35784 94.7546 1.36168C96.3373 1.34745 97.9959 1.37943 99.7126 1.45728C101.044 1.53575 102.258 1.51923 103.265 1.40894C104.051 1.32664 105.075 1.3576 106.16 1.49651C106.623 1.56285 107.074 1.58938 107.449 1.57247C107.81 1.55029 108.224 1.55567 108.668 1.58829C109.603 1.65033 110.502 1.67911 111.347 1.67406C112.174 1.65123 112.945 1.58884 113.794 1.56991C114.643 1.55098 115.936 1.56183 116.983 1.52967C118.03 1.49752 119.065 1.49318 120.088 1.51666ZM44.8023 -1.73758C44.8983 -1.56556 45.2377 -1.45849 45.603 -1.41262C46.862 -1.20894 48.1067 -1.12227 49.1281 -1.16715C49.6799 -1.22975 50.4155 -1.20565 51.1903 -1.09959C52.0925 -0.98934 52.9358 -0.971056 53.5715 -1.04796C53.7273 -1.0614 53.8465 -1.08981 53.9187 -1.13065C53.9327 -1.16404 53.9584 -1.22523 53.9631 -1.23636C53.8963 -1.26458 53.8144 -1.29073 53.7237 -1.31278C53.6329 -1.33484 53.5359 -1.35222 53.4399 -1.36358L49.2695 -1.5605L48.5427 -1.60383C47.2153 -1.71736 45.9504 -1.76258 44.8023 -1.73758ZM53.0055 0.985157C53.6564 1.26606 53.6587 1.26049 53.9922 1.3247C55.6009 1.59142 57.2085 1.73541 58.6237 1.73952C58.9382 1.7387 59.2052 1.71159 59.4019 1.66045C59.5031 1.65352 59.5675 1.6315 59.5811 1.59919C59.5947 1.56688 59.5563 1.5269 59.4744 1.48798L58.9568 1.29008C58.0168 1.20441 57.0904 1.13634 56.183 1.08627C55.1265 1.02715 54.1903 1.02487 53.095 1.00079L53.0055 0.985157ZM106.499 43.1146C107.106 43.5012 107.108 43.4956 108.124 43.5953C108.831 43.666 109.518 43.7075 110.162 43.7185C110.95 43.7307 111.758 43.7524 112.544 43.7701C112.736 43.7825 112.898 43.7722 113 43.7415C113.102 43.7107 113.136 43.6615 113.095 43.6036C112.991 43.5406 112.83 43.4798 112.636 43.4308C112.444 43.3819 112.229 43.3478 112.03 43.3341L111.601 43.3249C111.081 43.3056 110.54 43.2769 110.038 43.2727C109.711 43.2887 109.334 43.2763 108.933 43.2365C108.533 43.1966 108.122 43.1304 107.731 43.043L106.499 43.1146ZM56.2441 -1.23209C56.406 -1.16514 56.5892 -1.10102 56.7887 -1.04142C57.5612 -0.876253 58.3787 -0.782442 59.0811 -0.778382C59.4132 -0.768151 59.7169 -0.804683 60.055 -0.751595C60.6615 -0.680656 61.2492 -0.642868 61.7865 -0.640276C61.7865 -0.640276 61.9371 -0.655766 61.9866 -0.659074L62.0895 -0.90387C61.8351 -0.960579 61.5699 -1.00691 61.3059 -1.04072C60.4202 -1.10585 59.5498 -1.15038 58.6818 -1.20047C57.8137 -1.25056 57.5111 -1.27357 56.9434 -1.29508C56.6902 -1.28326 56.456 -1.26216 56.2441 -1.23209ZM37.063 29.2009L38.2221 29.7019C38.5972 29.7455 38.9476 29.7533 39.22 29.7244C39.4925 29.6954 39.6719 29.6312 39.7312 29.5415C39.8266 29.4995 39.8362 29.4373 39.7579 29.368C39.6795 29.2986 39.5193 29.2275 39.3109 29.1695C39.1103 29.1007 38.8813 29.0391 38.6381 28.9884C38.3948 28.9377 38.1426 28.899 37.8969 28.8747L37.063 29.2009ZM46.7138 26.7062C45.9557 26.6212 45.2306 26.5865 44.5939 26.6046C44.1927 26.6543 43.6492 26.6385 43.0747 26.5602C42.0299 26.4044 41.0227 26.3612 40.2658 26.4399C40.2658 26.4399 40.2377 26.5066 40.1094 26.526C39.9811 26.5454 40.4899 26.5925 40.6019 26.6121C41.4228 26.6599 42.2484 26.6966 42.9621 26.7138C43.4051 26.713 43.8738 26.7288 44.36 26.7609C45.029 26.8103 45.6633 26.8263 46.2384 26.8083C46.2384 26.8083 46.4609 26.7934 46.7115 26.7117L46.7138 26.7062ZM127.678 0.608905C127.316 0.514543 126.924 0.43785 126.53 0.384584C126.136 0.33132 125.751 0.30287 125.405 0.301354C125.139 0.296431 124.924 0.321345 124.795 0.372159C124.664 0.422971 124.626 0.496784 124.686 0.581925C124.955 0.628845 125.313 0.691406 125.514 0.726596C126.213 0.723152 126.808 0.677905 127.678 0.608905ZM195.463 8.56078C195.173 8.48482 194.853 8.42674 194.54 8.39318C194.227 8.35962 193.933 8.35193 193.693 8.37098C193.569 8.37925 193.653 8.46556 193.632 8.51564C193.618 8.52699 193.619 8.54111 193.632 8.55652C193.647 8.57193 193.674 8.58806 193.712 8.60322C193.75 8.61838 193.797 8.63201 193.848 8.64268C193.899 8.65336 193.952 8.66069 194.003 8.6639C194.317 8.69663 194.615 8.70637 194.868 8.69226C195.121 8.67814 195.323 8.64062 195.454 8.58304L195.463 8.56078ZM200.005 9.64668C199.96 9.60185 199.865 9.55514 199.736 9.51509C199.607 9.47504 199.453 9.44434 199.304 9.42864C199.039 9.42653 198.799 9.43896 198.592 9.46546C198.366 9.4859 198.529 9.61568 198.832 9.69268C198.961 9.72358 199.099 9.74769 199.234 9.76308C199.37 9.77847 199.499 9.78472 199.613 9.78134C199.726 9.77795 199.82 9.76502 199.887 9.74358C199.955 9.72213 199.994 9.69277 200.001 9.65781L200.005 9.64668ZM68.0344 -0.755328C67.3568 -0.915485 66.8352 -0.875193 66.2616 -0.939564C65.6878 -1.00393 65.5465 -1.01071 65.6234 -0.907702C65.7002 -0.804699 66.0935 -0.825588 66.3398 -0.782577C66.6725 -0.725506 67.0072 -0.692735 67.3064 -0.687922C67.6057 -0.683108 67.8578 -0.706448 68.0344 -0.755328ZM209.232 26.3434C208.874 26.3075 208.522 26.2821 208.183 26.2676C208.138 26.2825 208.11 26.302 208.101 26.3249C208.091 26.3479 208.1 26.3738 208.127 26.4012C208.127 26.4012 208.357 26.4831 208.491 26.5066C208.986 26.587 209.01 26.4718 209.232 26.3434ZM259.959 41.2651C260.202 41.3732 260.315 41.4467 260.51 41.4986C260.599 41.5166 260.691 41.5297 260.78 41.5369C260.868 41.5441 260.951 41.5452 261.021 41.5401C261.106 41.509 261.126 41.4613 261.077 41.4066C261.077 41.4066 260.829 41.3096 260.735 41.3051C260.466 41.2822 260.205 41.2688 259.959 41.2651ZM56.5006 -1.67101C55.9858 -1.76094 55.4932 -1.84697 55.1368 -1.74202C55.9544 -1.62908 55.9544 -1.62907 56.5006 -1.67101ZM64.8399 -0.644426C64.32 -0.836757 64.0149 -0.854211 63.7653 -0.832112C63.7123 -0.826547 63.6772 -0.814141 63.6654 -0.796778C63.6535 -0.779417 63.6656 -0.758043 63.6997 -0.735886C63.7338 -0.71373 63.7882 -0.692001 63.8545 -0.673982C63.9209 -0.655964 63.9956 -0.642639 64.0674 -0.636024C64.3386 -0.630487 64.5971 -0.633298 64.8399 -0.644426ZM91.5984 -0.563096C91.6098 -0.590914 91.624 -0.624295 91.49 -0.647755C91.4545 -0.659665 91.4134 -0.669906 91.3701 -0.677456C91.3269 -0.685006 91.2829 -0.689593 91.2439 -0.690761C91.2439 -0.690761 91.2297 -0.657378 91.2205 -0.635124L91.5984 -0.563096ZM110.18 45.6207L109.881 45.6461L110.016 45.6695L110.37 45.6837L110.18 45.6207ZM215.47 9.21261C215.358 9.19306 215.246 9.17351 215.23 9.21246C215.206 9.21848 215.192 9.22719 215.187 9.23784C215.182 9.24848 215.189 9.26076 215.204 9.27365C215.204 9.27365 215.361 9.30103 215.428 9.31276L215.47 9.21261ZM198.038 9.52409C197.964 9.52186 197.898 9.52447 197.843 9.53176L197.829 9.56514L198.053 9.60424L198.038 9.52409ZM46.1226 17.4778C46.0362 17.4575 45.9445 17.4415 45.854 17.4309L45.742 17.4113C45.742 17.4113 45.8623 17.4682 45.9294 17.4799C45.9966 17.4916 46.0508 17.4772 46.1226 17.4778Z" fill="#DF6951"/>
</g>
</g>
<defs>
<clipPath id="clip0_37_38">
<rect width="273" height="12" fill="white"/>
</clipPath>
</defs>
</svg>
