<svg width="512" height="512" viewBox="0 0 512 512" fill="none" xmlns="http://www.w3.org/2000/svg">
<path d="M256.855 178.625C263.902 178.625 269.609 172.915 269.609 165.871C269.609 158.828 263.902 153.117 256.855 153.117C200.508 153.117 154.828 198.797 154.828 255.148C154.828 311.496 200.508 357.176 256.855 357.176C313.207 357.176 358.887 311.496 358.887 255.148C358.887 248.102 353.176 242.395 346.133 242.395C339.09 242.395 333.379 248.102 333.379 255.148C333.379 297.41 299.121 331.672 256.855 331.672C214.594 331.672 180.332 297.41 180.332 255.148C180.332 212.883 214.594 178.625 256.855 178.625Z" fill="white"/>
<path d="M500.199 179.395C497.983 172.703 490.765 169.075 484.069 171.289C477.53 173.453 473.889 180.414 475.839 187.019C513.979 308.476 446.44 437.854 324.984 475.995C203.531 514.135 74.1522 446.597 36.0122 325.14C-2.1327 203.684 65.4102 74.3049 186.863 36.164C231.821 22.0469 280.026 22.0469 324.984 36.164C331.734 38.199 338.855 34.379 340.891 27.629C342.895 20.98 339.219 13.953 332.613 11.805C197.75 -30.5079 54.1172 44.52 11.8053 179.387C-30.5076 314.249 44.5232 457.882 179.387 500.194C314.254 542.507 457.882 467.479 500.194 332.612C515.842 282.739 515.843 229.269 500.198 179.395H500.199Z" fill="white"/>
<path d="M281.145 91.117C281.211 83.855 275.633 77.785 268.391 77.242C264.582 76.918 260.77 76.594 256.859 76.594C158.246 76.594 78.3054 156.535 78.3054 255.148C78.3054 353.758 158.246 433.699 256.859 433.699C355.469 433.699 435.41 353.758 435.41 255.149C435.41 250.535 435.129 245.926 434.563 241.348C433.543 234.348 427.043 229.5 420.043 230.52C413.043 231.535 408.195 238.04 409.211 245.04C409.25 245.305 409.297 245.566 409.351 245.832C409.629 248.922 409.902 251.984 409.902 255.141C409.906 339.668 341.387 408.187 256.863 408.195C172.336 408.199 103.816 339.675 103.813 255.152C103.809 170.629 172.324 102.105 256.852 102.102H256.855C260.02 102.102 263.085 102.375 266.168 102.648L268.558 102.848C275.223 103.133 280.855 97.961 281.137 91.297C281.141 91.234 281.141 91.176 281.145 91.117Z" fill="white"/>
<path d="M333.379 114.855V160.59L247.839 246.129C242.773 251.023 242.633 259.098 247.527 264.164C252.422 269.23 260.497 269.371 265.562 264.477C265.668 264.375 265.773 264.27 265.875 264.164L351.415 178.625H397.148C400.531 178.625 403.773 177.281 406.168 174.887L482.688 98.363C487.668 93.383 487.668 85.309 482.688 80.328C481.504 79.1441 480.098 78.2049 478.551 77.5642C477.004 76.9236 475.346 76.5939 473.672 76.594H435.41V38.332C435.41 31.289 429.7 25.578 422.652 25.582C419.272 25.5828 416.031 26.9259 413.641 29.316L337.117 105.84C335.932 107.023 334.992 108.428 334.35 109.975C333.709 111.522 333.379 113.18 333.379 114.855ZM358.887 120.137L409.902 69.121V89.348C409.902 96.391 415.613 102.102 422.656 102.102H442.883L391.867 153.117H358.887V120.137Z" fill="white"/>
</svg>
