<svg width="448" height="416" viewBox="0 0 448 416" fill="none" xmlns="http://www.w3.org/2000/svg">
<path d="M115.688 92.304V24.624C115.682 18.2608 113.151 12.16 108.652 7.66048C104.152 3.16098 98.0512 0.630377 91.688 0.624023H24C17.6368 0.630377 11.5359 3.16098 7.03645 7.66048C2.53696 12.16 0.00635372 18.2608 0 24.624V92.304C0.00635372 98.6673 2.53696 104.768 7.03645 109.268C11.5359 113.767 17.6368 116.298 24 116.304H91.688C98.0512 116.298 104.152 113.767 108.652 109.268C113.151 104.768 115.682 98.6673 115.688 92.304ZM16 92.304V24.624C16.0021 22.5029 16.8457 20.4693 18.3455 18.9695C19.8453 17.4697 21.8789 16.6261 24 16.624H91.688C93.8091 16.6261 95.8427 17.4697 97.3425 18.9695C98.8423 20.4693 99.6859 22.5029 99.688 24.624V92.304C99.6859 94.4251 98.8423 96.4587 97.3425 97.9585C95.8427 99.4584 93.8091 100.302 91.688 100.304H24C21.8789 100.302 19.8453 99.4584 18.3455 97.9585C16.8457 96.4587 16.0021 94.4251 16 92.304ZM289.848 116.304H357.536C363.899 116.298 370 113.767 374.5 109.268C378.999 104.768 381.53 98.6673 381.536 92.304V24.624C381.53 18.2608 378.999 12.16 374.5 7.66048C370 3.16098 363.899 0.630377 357.536 0.624023H289.848C283.485 0.630377 277.384 3.16098 272.884 7.66048C268.385 12.16 265.854 18.2608 265.848 24.624V92.304C265.854 98.6673 268.385 104.768 272.884 109.268C277.384 113.767 283.485 116.298 289.848 116.304ZM281.848 24.624C281.85 22.5029 282.694 20.4693 284.193 18.9695C285.693 17.4697 287.727 16.6261 289.848 16.624H357.536C359.657 16.6261 361.691 17.4697 363.191 18.9695C364.69 20.4693 365.534 22.5029 365.536 24.624V92.304C365.534 94.4251 364.69 96.4587 363.191 97.9585C361.691 99.4584 359.657 100.302 357.536 100.304H289.848C287.727 100.302 285.693 99.4584 284.193 97.9585C282.694 96.4587 281.85 94.4251 281.848 92.304V24.624ZM241.232 150.16H173.536C167.173 150.166 161.072 152.697 156.572 157.196C152.073 161.696 149.542 167.797 149.536 174.16V241.84C149.542 248.203 152.073 254.304 156.572 258.804C161.072 263.303 167.173 265.834 173.536 265.84H241.232C247.595 265.834 253.696 263.303 258.196 258.804C262.695 254.304 265.226 248.203 265.232 241.84V174.16C265.226 167.797 262.695 161.696 258.196 157.196C253.696 152.697 247.595 150.166 241.232 150.16ZM249.232 241.84C249.23 243.961 248.386 245.995 246.887 247.495C245.387 248.994 243.353 249.838 241.232 249.84H173.536C171.415 249.838 169.381 248.994 167.881 247.495C166.382 245.995 165.538 243.961 165.536 241.84V174.16C165.538 172.039 166.382 170.005 167.881 168.505C169.381 167.006 171.415 166.162 173.536 166.16H241.232C243.353 166.162 245.387 167.006 246.887 168.505C248.386 170.005 249.23 172.039 249.232 174.16V241.84ZM357.536 299.696H289.848C283.485 299.702 277.384 302.233 272.884 306.732C268.385 311.232 265.854 317.333 265.848 323.696V391.376C265.854 397.739 268.385 403.84 272.884 408.34C277.384 412.839 283.485 415.37 289.848 415.376H357.536C363.899 415.37 370 412.839 374.5 408.34C378.999 403.84 381.53 397.739 381.536 391.376V323.696C381.53 317.333 378.999 311.232 374.5 306.732C370 302.233 363.899 299.702 357.536 299.696ZM365.536 391.376C365.534 393.497 364.69 395.531 363.191 397.031C361.691 398.53 359.657 399.374 357.536 399.376H289.848C287.727 399.374 285.693 398.53 284.193 397.031C282.694 395.531 281.85 393.497 281.848 391.376V323.696C281.85 321.575 282.694 319.541 284.193 318.042C285.693 316.542 287.727 315.698 289.848 315.696H357.536C359.657 315.698 361.691 316.542 363.191 318.042C364.69 319.541 365.534 321.575 365.536 323.696V391.376ZM140.92 66.464H221.304L210.04 77.728C208.583 79.2368 207.776 81.2577 207.795 83.3552C207.813 85.4528 208.654 87.4593 210.137 88.9426C211.621 90.4258 213.627 91.2672 215.725 91.2854C217.822 91.3036 219.843 90.4973 221.352 89.04L246.272 64.12C247.772 62.6198 248.614 60.5853 248.614 58.464C248.614 56.3427 247.772 54.3082 246.272 52.808L221.344 27.88C220.606 27.1159 219.723 26.5065 218.747 26.0872C217.771 25.6679 216.721 25.4472 215.659 25.438C214.597 25.4288 213.544 25.6312 212.56 26.0334C211.577 26.4357 210.684 27.0297 209.933 27.7809C209.182 28.532 208.588 29.4252 208.185 30.4084C207.783 31.3916 207.581 32.445 207.59 33.5072C207.599 34.5695 207.82 35.6192 208.239 36.5953C208.658 37.5713 209.268 38.454 210.032 39.192L221.304 50.464H140.92C138.798 50.464 136.763 51.3069 135.263 52.8072C133.763 54.3075 132.92 56.3423 132.92 58.464C132.92 60.5858 133.763 62.6206 135.263 64.1209C136.763 65.6212 138.798 66.464 140.92 66.464Z" fill="white"/>
<path d="M423.384 50.4639H406.768C404.646 50.4639 402.611 51.3067 401.111 52.807C399.611 54.3073 398.768 56.3421 398.768 58.4639C398.768 60.5856 399.611 62.6204 401.111 64.1207C402.611 65.621 404.646 66.4639 406.768 66.4639H423.384C425.668 66.4681 427.857 67.3772 429.472 68.9921C431.087 70.607 431.996 72.7961 432 75.0799V191.384C431.996 193.668 431.087 195.857 429.472 197.472C427.857 199.087 425.668 199.996 423.384 200H326.392L337.656 188.736C339.113 187.227 339.92 185.206 339.901 183.109C339.883 181.011 339.042 179.005 337.559 177.521C336.075 176.038 334.069 175.197 331.971 175.178C329.874 175.16 327.853 175.967 326.344 177.424L301.424 202.344C299.924 203.844 299.082 205.879 299.082 208C299.082 210.121 299.924 212.156 301.424 213.656L326.336 238.576C327.845 240.033 329.866 240.839 331.963 240.821C334.061 240.803 336.067 239.962 337.551 238.478C339.034 236.995 339.875 234.989 339.893 232.891C339.912 230.794 339.105 228.773 337.648 227.264L326.384 216H423.384C429.911 215.994 436.168 213.398 440.783 208.783C445.398 204.168 447.994 197.91 448 191.384V75.0799C447.994 68.5533 445.398 62.2958 440.783 57.6807C436.168 53.0657 429.911 50.4702 423.384 50.4639ZM221.344 326.96C219.835 325.503 217.814 324.696 215.717 324.714C213.619 324.733 211.613 325.574 210.129 327.057C208.646 328.541 207.805 330.547 207.787 332.645C207.768 334.742 208.575 336.763 210.032 338.272L221.304 349.536H107.68C105.397 349.532 103.209 348.622 101.595 347.007C99.9815 345.392 99.0741 343.203 99.072 340.92V224.616C100.064 206.184 131.128 225.656 132.304 208C132.304 205.878 131.461 203.843 129.961 202.343C128.461 200.843 126.426 200 124.304 200H107.68C101.155 200.008 94.8994 202.605 90.2861 207.22C85.6728 211.834 83.0784 218.091 83.072 224.616V340.92C83.0784 347.445 85.6728 353.701 90.2861 358.316C94.8994 362.931 101.155 365.527 107.68 365.536H221.296L210.032 376.808C208.575 378.317 207.768 380.338 207.787 382.435C207.805 384.533 208.646 386.539 210.129 388.022C211.613 389.506 213.619 390.347 215.717 390.365C217.814 390.383 219.835 389.577 221.344 388.12L246.264 363.192C247.764 361.692 248.606 359.657 248.606 357.536C248.606 355.415 247.764 353.38 246.264 351.88L221.344 326.96Z" fill="white"/>
</svg>
