<svg width="510" height="392" viewBox="0 0 510 392" fill="none" xmlns="http://www.w3.org/2000/svg">
<path d="M255 322.536C182.584 322.536 117.74 289.768 76.0941 262.28C31.2001 232.652 3.58605 203.384 2.43205 202.154C0.869046 200.486 -0.000732422 198.286 -0.000732422 196C-0.000732422 193.714 0.869046 191.514 2.43205 189.846C3.58605 188.616 31.2081 159.348 76.0941 129.72C117.74 102.232 182.584 69.4639 255 69.4639C327.416 69.4639 392.26 102.232 433.906 129.72C478.792 159.348 506.414 188.614 507.566 189.846C509.129 191.514 509.999 193.714 509.999 196C509.999 198.286 509.129 200.486 507.566 202.154C506.414 203.386 478.792 232.652 433.906 262.28C392.26 289.768 327.416 322.536 255 322.536ZM21.7501 196C46.5041 219.82 142.482 304.536 255 304.536C367.672 304.536 463.528 219.832 488.256 196.004C463.508 172.2 367.526 87.4639 255 87.4639C142.474 87.4639 46.5061 172.178 21.7501 196Z" fill="white"/>
<path d="M255 322.536C229.974 322.536 205.51 315.114 184.701 301.21C163.893 287.306 147.674 267.543 138.098 244.422C128.521 221.3 126.015 195.858 130.898 171.313C135.78 146.767 147.832 124.221 165.528 106.525C183.225 88.8286 205.771 76.7774 230.317 71.8951C254.862 67.0129 280.304 69.5188 303.426 79.0961C326.547 88.6734 346.309 104.892 360.213 125.701C374.117 146.509 381.538 170.974 381.538 196C381.5 229.548 368.156 261.711 344.434 285.433C320.711 309.155 288.548 322.498 255 322.536ZM255 87.4639C233.534 87.4643 212.55 93.8302 194.701 105.757C176.853 117.683 162.942 134.634 154.727 154.466C146.513 174.299 144.364 196.122 148.552 217.175C152.74 238.229 163.077 257.568 178.256 272.747C193.435 287.926 212.775 298.263 233.829 302.451C254.882 306.638 276.705 304.489 296.538 296.274C316.37 288.059 333.321 274.148 345.247 256.299C357.173 238.45 363.538 217.466 363.538 196C363.505 167.224 352.059 139.636 331.712 119.289C311.364 98.9415 283.776 87.4962 255 87.4639Z" fill="white"/>
<path d="M255 52.8839C252.613 52.8839 250.324 51.9357 248.636 50.2479C246.948 48.5601 246 46.2709 246 43.8839V9.86792C246 7.48097 246.948 5.19179 248.636 3.50396C250.324 1.81613 252.613 0.86792 255 0.86792C257.387 0.86792 259.676 1.81613 261.364 3.50396C263.052 5.19179 264 7.48097 264 9.86792V43.8839C264 46.2709 263.052 48.5601 261.364 50.2479C259.676 51.9357 257.387 52.8839 255 52.8839ZM178.95 73.2659C177.369 73.2667 175.816 72.8511 174.446 72.0607C173.077 71.2704 171.94 70.1333 171.15 68.7639L154.15 39.3039C152.975 37.2379 152.666 34.7911 153.288 32.4975C153.911 30.204 155.416 28.2498 157.474 27.0615C159.532 25.8731 161.977 25.5471 164.274 26.1546C166.572 26.762 168.536 28.2537 169.738 30.3039L186.738 59.7639C187.528 61.1315 187.944 62.683 187.945 64.2624C187.946 65.8418 187.531 67.3936 186.742 68.7619C185.953 70.1301 184.817 71.2666 183.45 72.0572C182.083 72.8478 180.529 73.2647 178.95 73.2659ZM161.926 366.2C160.347 366.199 158.795 365.782 157.428 364.991C156.061 364.201 154.926 363.064 154.137 361.696C153.348 360.328 152.932 358.776 152.933 357.196C152.934 355.617 153.35 354.066 154.14 352.698L171.14 323.24C171.727 322.208 172.512 321.303 173.45 320.575C174.388 319.848 175.46 319.314 176.606 319.003C177.751 318.692 178.947 318.61 180.124 318.763C181.301 318.916 182.436 319.301 183.464 319.894C184.492 320.488 185.392 321.278 186.113 322.221C186.834 323.164 187.362 324.24 187.665 325.388C187.968 326.535 188.042 327.731 187.881 328.907C187.72 330.083 187.328 331.216 186.728 332.24L169.728 361.698C168.938 363.068 167.8 364.205 166.431 364.995C165.061 365.786 163.507 366.201 161.926 366.2ZM255 391.132C252.613 391.132 250.324 390.184 248.636 388.496C246.948 386.808 246 384.519 246 382.132V348.118C246 345.731 246.948 343.442 248.636 341.754C250.324 340.066 252.613 339.118 255 339.118C257.387 339.118 259.676 340.066 261.364 341.754C263.052 343.442 264 345.731 264 348.118V382.132C264 384.519 263.052 386.808 261.364 388.496C259.676 390.184 257.387 391.132 255 391.132ZM348.074 366.2C346.493 366.201 344.94 365.785 343.57 364.995C342.201 364.204 341.064 363.067 340.274 361.698L323.274 332.24C322.081 330.173 321.757 327.716 322.375 325.41C322.993 323.104 324.502 321.138 326.569 319.945C328.636 318.751 331.093 318.428 333.399 319.046C335.705 319.664 337.671 321.173 338.864 323.24L355.864 352.698C356.654 354.066 357.07 355.617 357.071 357.197C357.071 358.776 356.656 360.328 355.867 361.697C355.078 363.065 353.942 364.201 352.575 364.992C351.207 365.782 349.654 366.199 348.074 366.2ZM331.05 73.2659C329.471 73.2647 327.919 72.8478 326.552 72.0572C325.185 71.2666 324.05 70.1301 323.261 68.7619C322.472 67.3936 322.056 65.8418 322.057 64.2624C322.058 62.683 322.474 61.1315 323.264 59.7639L340.264 30.3039C341.458 28.2352 343.424 26.7254 345.731 26.1065C348.037 25.4876 350.495 25.8104 352.564 27.0039C354.633 28.1974 356.143 30.1638 356.761 32.4705C357.38 34.7772 357.058 37.2352 355.864 39.3039L338.864 68.7639C338.073 70.1354 336.934 71.2738 335.562 72.0642C334.19 72.8547 332.633 73.2692 331.05 73.2659ZM323.184 192.324C320.797 192.324 318.508 191.376 316.82 189.688C315.132 188 314.184 185.711 314.184 183.324V162.952H293.8C291.413 162.952 289.124 162.004 287.436 160.316C285.748 158.628 284.8 156.339 284.8 153.952C284.8 151.565 285.748 149.276 287.436 147.588C289.124 145.9 291.413 144.952 293.8 144.952H323.176C325.563 144.952 327.852 145.9 329.54 147.588C331.228 149.276 332.176 151.565 332.176 153.952V183.324C332.176 185.709 331.229 187.997 329.543 189.685C327.857 191.373 325.57 192.322 323.184 192.324Z" fill="white"/>
<path d="M186.818 247.054C185.038 247.054 183.298 246.526 181.818 245.537C180.338 244.548 179.184 243.143 178.503 241.498C177.822 239.854 177.644 238.044 177.991 236.298C178.338 234.552 179.195 232.949 180.454 231.69L234.442 177.702C235.278 176.866 236.27 176.203 237.362 175.751C238.454 175.299 239.624 175.066 240.806 175.066C241.988 175.066 243.158 175.299 244.25 175.751C245.342 176.203 246.334 176.866 247.17 177.702L266.936 197.47L316.82 147.586C318.508 145.898 320.797 144.951 323.184 144.951C325.571 144.951 327.86 145.9 329.548 147.588C331.236 149.276 332.183 151.565 332.183 153.952C332.183 156.339 331.234 158.628 329.546 160.316L273.298 216.562C271.611 218.249 269.322 219.197 266.936 219.198C265.754 219.198 264.584 218.965 263.492 218.513C262.4 218.061 261.408 217.398 260.572 216.562L240.8 196.8L193.182 244.418C192.347 245.255 191.355 245.919 190.263 246.371C189.171 246.824 188 247.056 186.818 247.054Z" fill="white"/>
</svg>
