<svg width="120" height="156" viewBox="0 0 120 156" fill="none" xmlns="http://www.w3.org/2000/svg">
<path d="M109.491 95.5811C109.506 97.6505 108.281 99.514 106.404 100.384C94.5915 105.864 78.17 109.265 60 109.265C41.83 109.265 25.4085 105.864 13.5958 100.384C11.7186 99.5137 10.4935 97.6502 10.5087 95.5811C10.8789 45.8469 19.9768 2.44238 60 2.44238C100.023 2.44238 109.121 45.8469 109.491 95.5811Z" fill="#5A4146"/>
<path d="M78.238 103.632V91.0273H41.762V103.632C41.7621 105.272 41.2459 106.871 40.2867 108.202C39.3274 109.533 37.9736 110.528 36.4172 111.047L11.5879 119.323C6.26866 121.097 2.68066 126.075 2.68066 131.682V148.347C2.68066 151.225 5.01335 153.557 7.89143 153.557H112.109C114.987 153.557 117.319 151.225 117.319 148.347V131.682C117.319 126.075 113.731 121.096 108.412 119.323L83.5825 111.047C82.0262 110.528 80.6725 109.533 79.7133 108.202C78.7541 106.871 78.238 105.272 78.238 103.632Z" fill="#E6AF78"/>
<path d="M41.762 103.631C41.762 106.785 39.8574 109.586 36.9921 110.803C66.1879 115.779 78.2297 94.9351 78.2297 94.9351L78.238 94.9296V91.0269H41.762V103.631Z" fill="#D29B6E"/>
<path d="M108.412 119.323L88.1233 112.56C78.4671 125.66 67.1964 132.981 60 135.319C52.8039 132.98 41.5332 125.66 31.8767 112.56L11.5882 119.323C6.26866 121.096 2.68066 126.074 2.68066 131.681V148.346C2.68066 151.224 5.01396 153.557 7.89143 153.557H112.109C114.986 153.557 117.319 151.224 117.319 148.346V131.681C117.319 126.074 113.731 121.096 108.412 119.323Z" fill="#E4EAF6"/>
<path d="M20.4714 137.478L6.01821 123.024C3.93445 125.359 2.68066 128.402 2.68066 131.681V148.346C2.68066 151.224 5.01335 153.557 7.89143 153.557H23.524V144.847C23.5241 143.478 23.2545 142.123 22.7307 140.859C22.2069 139.594 21.4392 138.445 20.4714 137.478ZM99.5286 137.478L113.982 123.024C116.066 125.359 117.319 128.402 117.319 131.681V148.346C117.319 151.224 114.987 153.557 112.109 153.557H96.476V144.847C96.4759 143.478 96.7455 142.123 97.2693 140.859C97.7931 139.594 98.5608 138.445 99.5286 137.478Z" fill="#D7DEED"/>
<path d="M26.5658 57.1826L23.5402 57.1729C20.656 57.1637 18.3127 59.4995 18.3127 62.3836V72.6839C18.3127 75.6022 20.7094 77.9517 23.6273 77.8938L28.1181 77.8042L26.5658 57.1826ZM93.4343 57.1826L96.4598 57.1729C99.344 57.1637 101.687 59.4995 101.687 62.3836V72.6839C101.687 75.6022 99.2907 77.9517 96.3727 77.8938L91.8819 77.8042L93.4343 57.1826Z" fill="#707487"/>
<path d="M26.1294 33.7075V44.9413C26.1294 49.6092 26.3086 54.2754 26.6666 58.9292L28.1681 78.4469C28.3452 80.7509 29.031 82.9869 30.176 84.994C31.321 87.0012 32.8968 88.7295 34.7898 90.0546L50.5233 101.068C53.2997 103.012 56.6069 104.054 59.996 104.054H60.0039C63.3931 104.054 66.7002 103.012 69.4767 101.068L85.2101 90.0546C87.1032 88.7295 88.679 87.0011 89.824 84.9939C90.969 82.9867 91.6548 80.7506 91.8319 78.4466L93.3334 58.9289C93.6914 54.2749 93.8706 49.6088 93.8706 44.941V33.7075H26.1294Z" fill="#F0C087"/>
<path d="M93.6753 33.7075H26.1294V44.9417C26.1294 46.3892 26.1781 47.8359 26.2129 49.2828V49.2838C26.2543 51.0235 26.3204 52.7621 26.4115 54.4997V54.5009C26.4889 55.9771 26.5535 57.4543 26.6669 58.9286L28.1684 78.4463C28.3456 80.7503 29.0314 82.9864 30.1764 84.9936C31.3215 87.0008 32.8973 88.7292 34.7904 90.0543L50.5239 101.068C53.3004 103.011 56.6075 104.054 59.9966 104.054C55.8157 104.054 51.2207 96.857 48.3375 91.3992C46.438 87.8039 45.4246 83.8186 45.3488 79.7531L44.9088 58.1166C44.8741 56.2407 46.233 54.645 48.0815 54.3242C62.0539 51.8992 73.1451 47.937 79.4854 45.1376C84.5115 53.4461 91.132 55.9311 91.99 56.2242L92.8097 56.5042H93.586C93.6774 54.7681 93.7444 51.0775 93.7862 49.3392L93.6753 33.7075Z" fill="#E6AF78"/>
<path d="M23.524 31.1021V49.34C54.3919 49.34 77.8891 38.5937 81.8247 36.2193C86.0544 46.7343 93.6752 49.34 93.6752 49.34H96.4762V31.1021H23.524Z" fill="#5A4146"/>
<path d="M58.1572 141.282L60 141.929L61.8427 141.282C70.295 138.312 82.9356 129.786 94.2633 114.607L88.1229 112.561C78.4668 125.661 67.1961 132.981 59.9997 135.319C52.8035 132.981 41.5329 125.661 31.8764 112.561L25.736 114.607C37.0643 129.785 49.7049 138.311 58.1572 141.282Z" fill="#D7DEED"/>
<path d="M109.184 117.006L88.9295 110.255C88.9233 110.252 88.9171 110.25 88.9109 110.248L86.0096 109.281C93.9681 107.725 101.301 105.445 107.432 102.601C110.189 101.322 111.956 98.56 111.934 95.5634C111.628 54.5394 105.912 0 60 0C14.0876 0 8.37192 54.5394 8.06632 95.5634C8.04408 98.5597 9.81126 101.322 12.5681 102.601C18.6996 105.445 26.0319 107.724 33.9903 109.281L31.087 110.249L31.0721 110.254L10.8161 117.005C7.73422 118.03 5.05341 119.999 3.15447 122.634C1.25554 125.268 0.235059 128.434 0.237982 131.682V148.347C0.237982 152.567 3.6712 156 7.89143 156H112.109C116.329 156 119.762 152.567 119.762 148.347V131.682C119.765 128.434 118.745 125.268 116.846 122.634C114.947 119.999 112.266 118.03 109.184 117.006ZM24.2998 59.6185L25.4899 75.4141L23.5792 75.4522C23.2109 75.4605 22.8448 75.3948 22.5024 75.259C22.16 75.1231 21.8484 74.92 21.5859 74.6615C21.3221 74.4045 21.1126 74.097 20.9699 73.7575C20.8272 73.4179 20.7543 73.0531 20.7553 72.6847V62.3845C20.7544 62.02 20.8258 61.6591 20.9655 61.3225C21.1052 60.9859 21.3104 60.6804 21.5692 60.4238C22.0938 59.9003 22.7827 59.6167 23.5323 59.6161L24.2998 59.6185ZM29.0029 57.0189C28.8845 55.2317 28.7934 53.4428 28.7296 51.6528C53.6515 50.6997 73.2521 43.2032 80.6676 39.5938C84.1041 46.4444 88.8496 49.6552 91.2957 50.9358C91.2216 53.1323 91.1238 55.1323 90.9974 57.0092L89.3963 78.2596C89.3033 79.4746 89.0431 80.6709 88.6229 81.8147C85.3177 84.4679 79.6191 86.9161 69.8143 87.4069C68.8862 85.0492 66.5913 83.3738 63.9079 83.3738H61.3025C57.8008 83.3738 54.9519 86.2229 54.9519 89.7244C54.9519 93.2262 57.8011 96.075 61.3025 96.075H63.9079C66.4901 96.075 68.7134 94.5235 69.7049 92.3057C73.4571 92.1345 76.7097 91.6881 79.532 91.0476L68.076 99.067C65.698 100.732 62.9064 101.611 59.9963 101.611C57.1076 101.616 54.2881 100.727 51.9239 99.067L36.1905 88.0535C32.9437 85.7805 30.9072 82.2111 30.6037 78.2633L29.0029 57.0189ZM96.4208 75.4519L94.5101 75.4138L95.7002 59.6182L96.4671 59.6155C96.8314 59.6141 97.1924 59.6847 97.5293 59.8233C97.8662 59.9619 98.1724 60.1658 98.4302 60.4232C98.689 60.6798 98.8942 60.9852 99.0339 61.3218C99.1737 61.6584 99.2451 62.0194 99.2441 62.3838V72.6841C99.2453 73.0525 99.1723 73.4173 99.0297 73.7569C98.887 74.0965 98.6774 74.404 98.4135 74.6609C98.1519 74.9204 97.8405 75.1243 97.498 75.2602C97.1556 75.3961 96.7892 75.4613 96.4208 75.4519ZM65.3738 89.7244C65.3733 90.1129 65.2187 90.4854 64.944 90.7601C64.6693 91.0349 64.2968 91.1894 63.9082 91.1899H61.3028C60.4948 91.1899 59.8373 90.5324 59.8373 89.7244C59.8373 88.9163 60.4948 88.2588 61.3028 88.2588H63.9082C64.2968 88.2593 64.6693 88.4139 64.944 88.6886C65.2187 88.9633 65.3733 89.3358 65.3738 89.7244ZM44.2047 103.632V99.627L49.1227 103.07C52.3261 105.312 56.086 106.497 60.004 106.497C63.914 106.497 67.6742 105.312 70.8773 103.07L75.7953 99.6267V103.632C75.7933 105.785 76.47 107.885 77.7293 109.632C78.9885 111.379 80.7664 112.685 82.8101 113.364L84.0791 113.787C78.1472 121.081 69.0769 129.498 59.9994 132.739C50.9221 129.498 41.8516 121.081 35.9196 113.787L37.1887 113.364C39.2326 112.685 41.0107 111.379 42.2702 109.632C43.5297 107.885 44.2066 105.785 44.2047 103.632ZM12.9514 95.5997C13.164 67.0306 16.3297 46.0063 22.6289 31.3249C30.2628 13.5339 42.4872 4.88505 60 4.88505C77.5128 4.88505 89.7372 13.5339 97.3708 31.3249C103.67 46.0063 106.836 67.0306 107.048 95.5991C107.057 96.6853 106.4 97.6938 105.376 98.1691C98.553 101.334 90.105 103.767 80.922 105.22C80.7621 104.706 80.6806 104.17 80.6801 103.632V96.238C80.6801 96.2279 80.6788 96.2182 80.6785 96.2081L86.6105 92.0558C89.2583 90.2056 91.3602 87.6777 92.696 84.7366C94.338 83.2391 95.4672 81.7083 96.2426 80.3348C96.2426 80.3348 96.4278 80.3382 96.4799 80.3382C98.4942 80.3382 100.39 79.5646 101.833 78.1499C103.313 76.6987 104.129 74.7575 104.129 72.6844V62.3842C104.129 60.3354 103.33 58.4101 101.879 56.9638C100.427 55.5171 98.4985 54.7188 96.451 54.7307L96.0244 54.7319C96.1097 53.0711 96.1771 51.3103 96.2286 49.406C96.2442 48.8267 96.0533 48.2608 95.6902 47.8093C95.327 47.3577 94.8151 47.05 94.246 46.9411C93.0175 46.421 87.4533 43.669 84.0901 35.3081C83.9581 34.9799 83.7563 34.6843 83.4988 34.4418C83.2413 34.1992 82.9342 34.0155 82.5986 33.9033C82.2631 33.7911 81.9073 33.7531 81.5557 33.792C81.204 33.8308 80.865 33.9456 80.5621 34.1284C76.611 36.5119 54.5117 46.2662 26.1611 46.8408C25.839 46.8473 25.5214 46.9174 25.2266 47.0472C24.9318 47.1769 24.6655 47.3637 24.4432 47.5968C24.2208 47.8298 24.0468 48.1046 23.9311 48.4052C23.8154 48.7059 23.7603 49.0264 23.769 49.3484C23.8205 51.2753 23.8884 53.0531 23.9744 54.7322L23.5478 54.731H23.5228C21.4832 54.731 19.5655 55.5238 18.1201 56.9641C16.6689 58.4104 15.87 60.3354 15.87 62.3845V72.6847C15.87 74.7581 16.685 76.699 18.1658 78.1502C19.6088 79.5649 21.5043 80.3385 23.5188 80.3385C23.5713 80.3385 25.9423 80.2916 25.9423 80.2916C26.7488 85.0389 29.3987 89.2634 33.3886 92.0565L39.3205 96.2087C39.3205 96.2188 39.319 96.2285 39.319 96.2386V103.632C39.319 104.182 39.2334 104.716 39.0771 105.221C29.8941 103.768 21.4461 101.334 14.6232 98.1697C13.5997 97.6941 12.9435 96.6856 12.9514 95.5997ZM12.3606 121.64L30.9843 115.432C40.8074 128.201 51.9383 135.268 59.245 137.642C59.7357 137.802 60.2643 137.802 60.755 137.642C68.062 135.268 79.1926 128.201 89.0157 115.432L107.639 121.64C108.649 121.978 109.601 122.466 110.465 123.087L97.8014 135.751C95.3718 138.181 94.0336 141.411 94.0336 144.847V151.115H25.9667V144.847C25.9667 141.411 24.6285 138.181 22.1989 135.751L9.53491 123.087C10.3841 122.478 11.3307 121.984 12.3606 121.64ZM5.12304 148.347V131.682C5.12262 129.976 5.5348 128.296 6.32442 126.785L18.7441 139.205C20.2511 140.712 21.081 142.716 21.081 144.847V151.115H7.89112C6.36494 151.115 5.12304 149.873 5.12304 148.347ZM114.877 148.347C114.877 149.873 113.635 151.115 112.109 151.115H98.9186V144.847C98.9186 142.716 99.7486 140.712 101.256 139.205L113.675 126.785C114.465 128.297 114.877 129.977 114.877 131.682V148.347H114.877Z" fill="black"/>
</svg>
