<svg width="143" height="143" viewBox="0 0 143 143" fill="none" xmlns="http://www.w3.org/2000/svg">
<path d="M140.907 81.2356V136.854C140.906 137.224 140.759 137.579 140.498 137.84C140.236 138.102 139.881 138.249 139.511 138.249H127.913C127.543 138.249 127.189 138.102 126.927 137.84C126.665 137.579 126.518 137.224 126.518 136.854V86.9855H94.1534V72.5967H132.268C137.038 72.597 140.907 76.4655 140.907 81.2356Z" fill="#A49CA7"/>
<path d="M94.1535 72.5972H121.136V86.986H94.1535V72.5972ZM21.8608 96.9583H103.679V113.617H21.8608V96.9583Z" fill="#766D78"/>
<path d="M21.8608 96.9585H31.6301V113.617H21.8608V96.9585Z" fill="#655E67"/>
<path d="M37.0365 2.13818H3.57839C3.20824 2.13818 2.85325 2.28522 2.59151 2.54696C2.32978 2.80869 2.18274 3.16368 2.18274 3.53383V15.5294C2.18274 15.8995 2.32978 16.2545 2.59151 16.5162C2.85325 16.778 3.20824 16.925 3.57839 16.925H31.1453V50.0077H45.9321V11.0335C45.9318 6.12096 41.9493 2.13818 37.0365 2.13818Z" fill="#A49CA7"/>
<path d="M48.4102 44.9184H28.6667C28.3644 44.9183 28.0651 44.9778 27.7858 45.0935C27.5065 45.2091 27.2528 45.3787 27.0391 45.5924C26.8253 45.8062 26.6558 46.0599 26.5401 46.3392C26.4245 46.6185 26.365 46.9178 26.365 47.22V55.4473H50.7121V47.22C50.7121 46.6096 50.4695 46.0241 50.0378 45.5925C49.6061 45.1608 49.0206 44.9184 48.4102 44.9184ZM47.9208 25.3276H29.1563C27.6148 25.3276 26.365 26.5772 26.365 28.1189V32.4804C26.365 34.0219 27.6146 35.2717 29.1563 35.2717H47.9208C49.4623 35.2717 50.7121 34.0221 50.7121 32.4804V28.1189C50.7119 26.5772 49.4623 25.3276 47.9208 25.3276Z" fill="#766D78"/>
<path d="M13.3476 16.9261H3.57839C3.20831 16.9259 2.85345 16.7788 2.59176 16.5171C2.33007 16.2554 2.18296 15.9005 2.18274 15.5305V3.53383C2.18296 3.16375 2.33007 2.80889 2.59176 2.5472C2.85345 2.28552 3.20831 2.13841 3.57839 2.13818H13.3476C12.9776 2.13841 12.6227 2.28552 12.361 2.5472C12.0993 2.80889 11.9522 3.16375 11.952 3.53383V15.5305C11.9522 15.9005 12.0993 16.2554 12.361 16.5171C12.6227 16.7788 12.9776 16.9259 13.3476 16.9261Z" fill="#8E8391"/>
<path d="M38.4352 44.9192C37.8252 44.9193 37.2403 45.1616 36.809 45.5929C36.3776 46.0243 36.1353 46.6092 36.1352 47.2192V55.4479H26.366V47.2192C26.366 46.6092 26.6084 46.0243 27.0397 45.5929C27.471 45.1616 28.056 44.9193 28.666 44.9192H38.4352ZM38.9265 35.2728H29.1573C27.6136 35.2728 26.366 34.0224 26.366 32.4815V28.1189C26.366 26.578 27.6136 25.3276 29.1573 25.3276H38.9265C37.3828 25.3276 36.1352 26.578 36.1352 28.1189V32.4815C36.1352 34.0224 37.3828 35.2728 38.9265 35.2728Z" fill="#655E67"/>
<path d="M86.9029 25.8462C90.2687 25.8462 92.9972 23.1177 92.9972 19.752C92.9972 16.3862 90.2687 13.6577 86.9029 13.6577C83.5371 13.6577 80.8087 16.3862 80.8087 19.752C80.8087 23.1177 83.5371 25.8462 86.9029 25.8462Z" fill="#544F56"/>
<path d="M87.3615 43.2993H69.6499C68.6888 43.2993 67.7569 43.63 67.0108 44.2359C66.2646 44.8417 65.7497 45.6859 65.5524 46.6266V57.0661H91.5485V47.4863C91.5485 45.174 89.6738 43.2993 87.3615 43.2993Z" fill="#766D78"/>
<path d="M79.4186 43.3003C78.4574 43.3001 77.5254 43.6307 76.7792 44.2366C76.0331 44.8425 75.5182 45.6868 75.3211 46.6276V57.0668H65.5518V46.6276C65.7489 45.6868 66.2638 44.8425 67.01 44.2366C67.7562 43.6307 68.6882 43.3001 69.6494 43.3003H79.4186Z" fill="#655E67"/>
<path d="M90.0782 24.9536C89.1225 25.5395 88.0229 25.8487 86.9018 25.8468C83.5382 25.8468 80.8087 23.1169 80.8087 19.7509C80.8087 16.3876 83.5385 13.6577 86.9018 13.6577C88.0656 13.6577 89.1543 13.9842 90.0782 14.5509C88.3282 15.6201 87.1587 17.5486 87.1587 19.7509C87.1587 21.9531 88.3282 23.8844 90.0782 24.9536Z" fill="#444145"/>
<path d="M20.3101 96.9579L4.38184 93.3374C4.07333 93.2672 3.79781 93.0943 3.60046 92.8471C3.4031 92.5998 3.29563 92.2928 3.29565 91.9764V64.2525C3.29568 63.9362 3.40317 63.6292 3.60052 63.3819C3.79786 63.1346 4.07335 62.9617 4.38184 62.8915L20.3101 59.271V96.9579Z" fill="#A49CA7"/>
<path d="M26.365 54.5635H97.6242V101.666H26.365V54.5635Z" fill="#FED22B"/>
<path d="M26.365 101.666H17.973C15.9196 101.666 14.255 100.001 14.255 97.9481V58.2815C14.255 56.2281 15.9196 54.5635 17.973 54.5635H26.3648L26.365 101.666ZM97.6243 101.666H106.016C108.069 101.666 109.734 100.001 109.734 97.9481V58.2815C109.734 56.2281 108.069 54.5635 106.016 54.5635H97.6243V101.666Z" fill="#F0A70A"/>
<path d="M57.5427 90.6929H38.0668C37.6966 90.6929 37.3416 90.5459 37.0799 90.2841C36.8182 90.0224 36.6711 89.6674 36.6711 89.2972V66.9323C36.6711 66.5621 36.8182 66.2071 37.0799 65.9454C37.3416 65.6837 37.6966 65.5366 38.0668 65.5366H57.5427C57.9129 65.5366 58.2679 65.6837 58.5296 65.9454C58.7913 66.2071 58.9384 66.5621 58.9384 66.9323V89.2972C58.9384 89.6674 58.7913 90.0224 58.5296 90.2841C58.2679 90.5459 57.9129 90.6929 57.5427 90.6929Z" fill="#766D78"/>
<path d="M110.18 140.862H3.48903C3.11888 140.862 2.76389 140.715 2.50216 140.453C2.24042 140.191 2.09338 139.836 2.09338 139.466V115.012C2.09338 114.642 2.24042 114.287 2.50216 114.025C2.76389 113.764 3.11888 113.617 3.48903 113.617H110.18C110.55 113.617 110.905 113.764 111.166 114.025C111.428 114.287 111.575 114.642 111.575 115.012V139.466C111.575 139.836 111.428 140.191 111.166 140.453C110.905 140.715 110.55 140.862 110.18 140.862Z" fill="#FED22B"/>
<path d="M47.836 90.6922H38.0668C37.6967 90.692 37.3418 90.5449 37.0802 90.2832C36.8185 90.0215 36.6714 89.6666 36.6711 89.2965V66.9332C36.671 66.7499 36.707 66.5684 36.7771 66.399C36.8472 66.2296 36.95 66.0757 37.0796 65.946C37.2092 65.8164 37.3631 65.7136 37.5325 65.6435C37.7019 65.5735 37.8835 65.5375 38.0668 65.5376H47.836C47.6527 65.5375 47.4712 65.5735 47.3018 65.6435C47.1324 65.7136 46.9785 65.8164 46.8488 65.946C46.7192 66.0757 46.6164 66.2296 46.5463 66.399C46.4762 66.5684 46.4402 66.7499 46.4404 66.9332V89.2965C46.4406 89.6666 46.5877 90.0215 46.8494 90.2832C47.1111 90.5449 47.466 90.692 47.836 90.6922Z" fill="#655E67"/>
<path d="M13.2583 140.862H3.48903C3.11895 140.862 2.76409 140.714 2.5024 140.453C2.24072 140.191 2.09361 139.836 2.09338 139.466V115.012C2.09361 114.642 2.24072 114.287 2.5024 114.026C2.76409 113.764 3.11895 113.617 3.48903 113.617H13.2583C12.8882 113.617 12.5333 113.764 12.2717 114.026C12.01 114.287 11.8629 114.642 11.8626 115.012V139.466C11.8629 139.836 12.01 140.191 12.2717 140.453C12.5333 140.714 12.8882 140.862 13.2583 140.862Z" fill="#F0A70A"/>
<path d="M13.2583 140.862H3.48903C3.11895 140.862 2.76409 140.715 2.5024 140.453C2.24072 140.191 2.09361 139.836 2.09338 139.466V122.496L10.7686 127.785C11.1254 128.002 11.4905 128.205 11.8629 128.394V139.466C11.863 139.836 12.01 140.191 12.2717 140.453C12.5333 140.715 12.8882 140.862 13.2583 140.862Z" fill="#72D1FB"/>
<path d="M2.09338 122.497L10.7692 127.785C13.3827 129.377 16.3843 130.22 19.445 130.22C22.5057 130.22 25.5073 129.377 28.1208 127.785C30.7343 126.192 33.7359 125.349 36.7966 125.349C39.8573 125.349 42.8589 126.192 45.4724 127.785C50.7366 130.993 57.4324 131.071 62.824 127.785C68.0882 124.576 74.784 124.498 80.1756 127.785C85.4398 130.993 92.1356 131.071 97.5272 127.785C102.791 124.576 109.487 124.498 114.879 127.785C120.143 130.993 126.839 131.071 132.23 127.785L140.906 122.497V139.467C140.906 139.837 140.759 140.192 140.497 140.454C140.236 140.715 139.881 140.862 139.511 140.862H3.48903C3.11888 140.862 2.76389 140.715 2.50216 140.454C2.24042 140.192 2.09338 139.837 2.09338 139.467V122.497Z" fill="#93DCFC"/>
<path d="M132.231 127.785C129.618 129.377 126.617 130.219 123.556 130.219C115.36 130.219 114.389 125.348 106.203 125.348C98.026 125.348 97.0378 130.219 88.8503 130.219C80.6481 130.219 79.6957 125.348 71.5001 125.348C63.3105 125.348 62.3453 130.219 54.1499 130.219C45.9533 130.219 44.983 125.348 36.7969 125.348C33.7361 125.348 30.7344 126.191 28.1216 127.785C25.5077 129.378 22.5059 130.22 19.4451 130.22C16.3843 130.22 13.3826 129.378 10.7686 127.785L2.09338 122.496V130.59L10.7686 135.88C13.3826 137.472 16.3843 138.314 19.4451 138.314C22.5059 138.314 25.5077 137.472 28.1216 135.88C30.7345 134.285 33.7361 133.442 36.7969 133.443C39.8576 133.442 42.8593 134.285 45.4721 135.88C48.0866 137.472 51.0889 138.314 54.1501 138.314C57.2105 138.314 60.2118 137.472 62.8254 135.88C65.4384 134.286 68.4399 133.443 71.5005 133.443C74.5611 133.443 77.5626 134.286 80.1756 135.88C82.7892 137.472 85.7905 138.314 88.8508 138.314C91.9121 138.314 94.9144 137.472 97.5288 135.88C100.142 134.286 103.143 133.443 106.204 133.443C109.265 133.443 112.266 134.286 114.879 135.88C117.494 137.472 120.496 138.314 123.557 138.314C126.617 138.314 129.619 137.472 132.232 135.88L140.908 130.59V122.496L132.231 127.785Z" fill="#72D1FB"/>
<path d="M132.268 70.5035H111.828V58.2812C111.828 55.0768 109.221 52.4699 106.016 52.4699H93.6429V47.4869C93.6429 44.0239 90.8257 41.2067 87.3627 41.2067H82.4484L86.5608 27.9303C91.2415 28.1235 95.0902 24.3692 95.0902 19.7513C95.0902 15.2368 91.4172 11.5638 86.9027 11.5638C78.7282 11.5638 75.6037 22.3195 82.5621 26.6888L78.0651 41.2064H69.6491C66.6952 41.2064 64.1104 43.305 63.5029 46.1963C63.4732 46.3379 63.4583 46.4823 63.4582 46.627V52.4696H52.8041V47.2185C52.8041 44.7962 50.8331 42.8252 48.4108 42.8252H48.0256V37.3588C50.6703 37.3021 52.8053 35.1375 52.8053 32.4795V28.118C52.8053 25.4599 50.6703 23.2953 48.0256 23.2386V11.0336C48.0256 4.9743 43.0961 0.0444336 37.0364 0.0444336H22.6032C22.048 0.0444336 21.5156 0.26498 21.123 0.657556C20.7304 1.05013 20.5099 1.58258 20.5099 2.13776C20.5099 2.69295 20.7304 3.2254 21.123 3.61797C21.5156 4.01055 22.048 4.23109 22.6032 4.23109H37.0367C40.7874 4.23109 43.839 7.28269 43.839 11.0334V23.2336H33.2377V16.926C33.2377 16.6511 33.1836 16.3789 33.0784 16.1249C32.9732 15.8709 32.819 15.6402 32.6246 15.4458C32.4302 15.2514 32.1994 15.0972 31.9455 14.992C31.6915 14.8868 31.4193 14.8326 31.1444 14.8326H4.27603V4.23137H14.2296C14.7848 4.23137 15.3172 4.01083 15.7098 3.61825C16.1024 3.22568 16.3229 2.69323 16.3229 2.13804C16.3229 1.58286 16.1024 1.05041 15.7098 0.657835C15.3172 0.26526 14.7848 0.0447129 14.2296 0.0447129H2.1827C1.9078 0.0447129 1.6356 0.0988585 1.38162 0.204058C1.12765 0.309258 0.896881 0.463451 0.702497 0.657835C0.309922 1.05041 0.089375 1.58286 0.089375 2.13804V16.926C0.089375 17.4812 0.309922 18.0136 0.702497 18.4062C0.896881 18.6006 1.12765 18.7548 1.38162 18.86C1.6356 18.9652 1.9078 19.0193 2.1827 19.0193H29.0511V23.2392C26.4067 23.2959 24.2717 25.4607 24.2717 28.1185V32.48C24.2717 35.1378 26.4067 37.3026 29.0511 37.3593V42.8257H28.6659C26.2436 42.8257 24.2726 44.7967 24.2726 47.2191V52.4701H17.973C14.7687 52.4701 12.1617 55.0771 12.1617 58.2815V58.9766L2.83263 61.0962C2.3698 61.2013 1.95643 61.4606 1.66031 61.8315C1.3642 62.2024 1.20292 62.663 1.20293 63.1376V93.0902C1.20291 93.5647 1.36412 94.0252 1.66012 94.396C1.95613 94.7669 2.36937 95.0262 2.83207 95.1313L12.1617 97.2534V97.948C12.1617 101.152 14.7687 103.759 17.973 103.759H19.7672V111.524H15.5423C14.9871 111.524 14.4547 111.744 14.0621 112.137C13.6695 112.529 13.449 113.062 13.449 113.617C13.449 114.172 13.6695 114.705 14.0621 115.097C14.4547 115.49 14.9871 115.71 15.5423 115.71H108.785C108.97 115.71 109.148 115.784 109.278 115.915C109.409 116.046 109.483 116.223 109.483 116.408V123.536C105.06 122.745 100.429 123.564 96.4378 125.996C91.7585 128.848 85.9447 128.849 81.2653 125.996C75.2417 122.325 67.7583 122.325 61.7347 125.996C57.0553 128.848 51.2415 128.849 46.5621 125.996C40.5385 122.325 33.0551 122.325 27.0315 125.996C22.3521 128.849 16.5383 128.849 11.8589 125.996L4.18694 121.32V115.71H7.16871C7.7239 115.71 8.25634 115.49 8.64892 115.097C9.0415 114.705 9.26204 114.172 9.26204 113.617C9.26204 113.062 9.0415 112.529 8.64892 112.137C8.25634 111.744 7.7239 111.524 7.16871 111.524H2.09333C1.53814 111.524 1.0057 111.744 0.613122 112.137C0.220547 112.529 0 113.062 0 113.617L0 140.862C0 141.417 0.220547 141.95 0.613122 142.342C1.0057 142.735 1.53814 142.955 2.09333 142.955H140.906C141.462 142.955 141.994 142.735 142.387 142.342C142.779 141.95 143 141.417 143 140.862V81.2358C143 75.318 138.185 70.5035 132.268 70.5035ZM86.9029 15.751C89.1088 15.751 90.9039 17.5457 90.9039 19.7516C90.9039 21.9575 89.1091 23.7525 86.9029 23.7525C84.697 23.7525 82.9023 21.9578 82.9023 19.7516C82.9023 17.5455 84.697 15.751 86.9029 15.751ZM12.162 92.9598L5.38987 91.4195V64.8089L12.162 63.2703V92.9598ZM67.6451 46.8831C67.9096 46.0103 68.7252 45.3936 69.6494 45.3936H87.3624C88.5167 45.3936 89.4557 46.3326 89.4557 47.4869V52.4699H67.6451V46.8831ZM28.4584 32.48V28.1185C28.4585 27.9335 28.5321 27.7562 28.6629 27.6253C28.7937 27.4945 28.9711 27.421 29.1561 27.4208H47.9206C48.1056 27.421 48.283 27.4945 48.4138 27.6253C48.5446 27.7562 48.6182 27.9335 48.6183 28.1185V32.48C48.6182 32.665 48.5446 32.8424 48.4138 32.9732C48.283 33.104 48.1056 33.1776 47.9206 33.1777H29.1561C28.9711 33.1776 28.7937 33.104 28.6629 32.9732C28.5321 32.8424 28.4585 32.665 28.4584 32.48ZM43.839 37.3646V42.8257H33.2377V37.3646H43.839ZM28.4592 47.2191C28.4593 47.1644 28.4811 47.1119 28.5198 47.0732C28.5585 47.0345 28.6109 47.0127 28.6656 47.0127H48.4108C48.4655 47.0127 48.518 47.0345 48.5567 47.0732C48.5954 47.1119 48.6171 47.1644 48.6172 47.2191V52.4701H28.459V47.2191H28.4592ZM28.4584 56.6568H95.531V99.5724H28.4584V56.6568ZM17.973 99.5724C17.5424 99.5719 17.1295 99.4006 16.825 99.0961C16.5205 98.7916 16.3492 98.3787 16.3486 97.948V58.2815C16.3492 57.8508 16.5205 57.4379 16.825 57.1334C17.1295 56.8289 17.5424 56.6576 17.973 56.6571H24.2715V99.5727L17.973 99.5724ZM101.587 111.524H23.9542V103.759H101.586V111.524H101.587ZM103.68 99.5713C103.672 99.5713 103.664 99.5724 103.656 99.5724H99.7179V56.6568H106.016C106.447 56.6573 106.86 56.8286 107.164 57.1331C107.469 57.4377 107.64 57.8505 107.641 58.2812V97.948C107.64 98.3787 107.469 98.7916 107.164 99.0961C106.86 99.4006 106.447 99.5719 106.016 99.5724H103.704C103.696 99.5724 103.688 99.5713 103.68 99.5713ZM138.813 138.769H4.18666V126.224L9.67959 129.572C15.7032 133.243 23.1867 133.243 29.2103 129.572C33.8896 126.72 39.7034 126.72 44.3828 129.572C50.4067 133.243 57.8899 133.243 63.9135 129.572C68.5928 126.72 74.4066 126.72 79.086 129.572C85.1099 133.243 92.593 133.243 98.6166 129.572C103.392 126.661 109.213 126.783 113.789 129.572C119.813 133.243 127.297 133.243 133.32 129.572L138.813 126.224L138.813 138.769ZM138.813 121.32C130.493 126.391 130.336 126.581 128.611 127.223V114.862C128.611 114.307 128.391 113.774 127.998 113.381C127.605 112.989 127.073 112.768 126.518 112.768C125.963 112.768 125.43 112.989 125.038 113.381C124.645 113.774 124.425 114.307 124.425 114.862V128.108C118.986 128.435 116.329 125.961 113.67 124.802V116.408C113.67 113.715 111.479 111.524 108.785 111.524H105.774V103.759C109.5 103.759 111.828 100.953 111.828 97.948V89.079H124.425V106.488C124.425 107.043 124.645 107.575 125.038 107.968C125.43 108.361 125.963 108.581 126.518 108.581C127.073 108.581 127.605 108.361 127.998 107.968C128.391 107.575 128.611 107.043 128.611 106.488V86.9856C128.611 86.4305 128.391 85.898 127.998 85.5054C127.605 85.1129 127.073 84.8923 126.518 84.8923H111.828V74.6904H132.268C135.877 74.6904 138.813 77.6267 138.813 81.2358V121.32H138.813Z" fill="black"/>
<path d="M58.9383 63.4429H36.6711C36.3962 63.4429 36.124 63.497 35.87 63.6022C35.616 63.7074 35.3853 63.8616 35.1909 64.056C34.9965 64.2504 34.8423 64.4811 34.7371 64.7351C34.6319 64.9891 34.5778 65.2613 34.5778 65.5362V90.6925C34.5778 91.2477 34.7983 91.7801 35.1909 92.1727C35.5835 92.5653 36.1159 92.7858 36.6711 92.7858H58.9383C59.4935 92.7858 60.0259 92.5653 60.4185 92.1727C60.8111 91.7801 61.0316 91.2477 61.0316 90.6925V65.5362C61.0317 65.2613 60.9776 64.9891 60.8724 64.7351C60.7672 64.4811 60.613 64.2503 60.4186 64.0559C60.2242 63.8615 59.9934 63.7073 59.7394 63.6021C59.4854 63.497 59.2132 63.4428 58.9383 63.4429ZM56.845 88.5991H38.7647V67.6298H56.845V88.5991ZM87.3179 67.3019H69.3019C68.7467 67.3019 68.2143 67.5225 67.8217 67.915C67.4291 68.3076 67.2086 68.8401 67.2086 69.3952C67.2086 69.9504 67.4291 70.4829 67.8217 70.8755C68.2143 71.268 68.7467 71.4886 69.3019 71.4886H87.3179C87.8731 71.4886 88.4056 71.268 88.7981 70.8755C89.1907 70.4829 89.4113 69.9504 89.4113 69.3952C89.4113 68.8401 89.1907 68.3076 88.7981 67.915C88.4056 67.5225 87.8731 67.3019 87.3179 67.3019ZM87.3179 76.021H69.3019C68.7467 76.021 68.2143 76.2416 67.8217 76.6341C67.4291 77.0267 67.2086 77.5592 67.2086 78.1143C67.2086 78.6695 67.4291 79.202 67.8217 79.5945C68.2143 79.9871 68.7467 80.2077 69.3019 80.2077H87.3179C87.8731 80.2077 88.4056 79.9871 88.7981 79.5945C89.1907 79.202 89.4113 78.6695 89.4113 78.1143C89.4113 77.5592 89.1907 77.0267 88.7981 76.6341C88.4056 76.2416 87.8731 76.021 87.3179 76.021ZM87.3179 84.7401H69.3019C68.7467 84.7401 68.2143 84.9606 67.8217 85.3532C67.4291 85.7458 67.2086 86.2782 67.2086 86.8334C67.2086 87.3886 67.4291 87.9211 67.8217 88.3136C68.2143 88.7062 68.7467 88.9268 69.3019 88.9268H87.3179C87.8731 88.9268 88.4056 88.7062 88.7981 88.3136C89.1907 87.9211 89.4113 87.3886 89.4113 86.8334C89.4113 86.2782 89.1907 85.7458 88.7981 85.3532C88.4056 84.9606 87.8731 84.7401 87.3179 84.7401Z" fill="black"/>
<path d="M45.2179 80.2083H47.326L46.5149 82.284C46.3908 82.6013 46.3461 82.9441 46.3845 83.2826C46.4229 83.6211 46.5434 83.9452 46.7355 84.2266C46.9276 84.508 47.1854 84.7383 47.4867 84.8974C47.7879 85.0565 48.1235 85.1398 48.4642 85.1398C48.8855 85.1398 49.2971 85.0127 49.645 84.775C49.993 84.5374 50.2612 84.2003 50.4145 83.8078L52.3416 78.8768C52.4659 78.5595 52.5107 78.2167 52.4723 77.8781C52.4338 77.5395 52.3133 77.2155 52.1211 76.9341C51.929 76.6527 51.671 76.4225 51.3696 76.2634C51.0683 76.1044 50.7326 76.0214 50.3919 76.0216H48.2837L49.0948 73.9459C49.1949 73.6898 49.2435 73.4166 49.238 73.1417C49.2324 72.8669 49.1728 72.5958 49.0625 72.344C48.9522 72.0922 48.7934 71.8646 48.5951 71.6742C48.3968 71.4837 48.163 71.3342 47.907 71.2342C47.6509 71.134 47.3777 71.0853 47.1028 71.0907C46.8279 71.0962 46.5568 71.1558 46.305 71.2662C46.0531 71.3765 45.8255 71.5353 45.6351 71.7337C45.4447 71.932 45.2952 72.1659 45.1953 72.422L43.2681 77.353C43.1439 77.6703 43.0991 78.0132 43.1375 78.3517C43.1759 78.6903 43.2965 79.0144 43.4886 79.2958C43.6808 79.5772 43.9387 79.8074 44.2401 79.9664C44.5415 80.1254 44.8771 80.2085 45.2179 80.2083Z" fill="black"/>
</svg>
