<svg width="141" height="141" viewBox="0 0 141 141" fill="none" xmlns="http://www.w3.org/2000/svg">
<path d="M138.247 138.118H21.8989L24.5873 112.99C28.9385 111.788 32.0501 107.674 31.767 102.94L31.0579 91.1374C37.0749 83.1717 47.1873 78.0122 58.5257 78.0122H59.4053L59.3503 78.0973L66.6674 100.159L80.3505 89.9774H80.3946L94.2785 100.159L100.845 78.0973L100.79 78.0122H100.972C117.879 78.0122 132.095 89.4936 134.019 104.7L138.247 138.118Z" fill="#A0C8FF"/>
<path d="M106.729 35.1375V44.6123C106.729 59.3096 94.8164 71.2225 80.1191 71.2225C65.4218 71.2225 53.5087 59.3096 53.5087 44.6123V35.1375C53.5087 33.8071 53.6048 32.5014 53.7945 31.2234C54.5505 31.9162 55.3833 32.5203 56.2766 33.0239L56.2794 33.0266C58.6185 34.3405 61.0073 34.7145 62.376 34.0161C64.8663 32.7463 70.3171 30.9375 80.1161 30.9375C89.9015 30.9375 95.3221 32.738 97.7986 34.0023C98.2577 34.2359 98.8322 34.3515 99.478 34.3515C100.762 34.3515 102.337 33.8979 103.892 33.0294C104.811 32.514 105.665 31.8922 106.438 31.1768C106.633 32.488 106.73 33.8119 106.729 35.1375Z" fill="#FFDAD5"/>
<path d="M80.1166 30.9385C70.316 30.9385 64.8674 32.7478 62.3773 34.0171C61.0064 34.7158 58.6193 34.3393 56.2805 33.0257L56.2774 33.024C52.3046 30.7928 49.6411 26.5405 51.8042 24.7447C55.5407 21.643 64.0484 17.6313 80.1263 17.6313C96.1846 17.6313 104.668 21.6358 108.391 24.7386C110.553 26.54 107.87 30.8022 103.891 33.0284C101.551 34.3382 99.1703 34.7039 97.7997 34.0036C95.322 32.7368 89.9029 30.9385 80.1166 30.9385Z" fill="#A0C8FF"/>
<path d="M107.653 24.1594C103.645 21.1907 98.6071 19.6989 93.7622 18.7846C88.8971 17.8665 83.9046 17.5624 78.9591 17.6398C73.5188 17.7263 68.0404 18.2123 62.7694 19.6193C59.1133 20.5953 55.6319 22.0042 52.5249 24.1803C55.5236 11.9122 65.7434 2.88135 77.8873 2.88135H82.2935C89.5446 2.88135 96.1113 6.10342 100.861 11.3069C104.063 14.8154 106.443 19.2272 107.653 24.1594Z" fill="#A0C8FF"/>
<path d="M66.2091 67.3013L59.3491 78.0977L66.6676 100.157L80.3499 89.9761L66.2091 67.3013ZM93.985 67.3013L100.845 78.0977L94.2764 100.157L80.3939 89.9761L93.985 67.3013Z" fill="#F9F5F3"/>
<path d="M93.9589 67.347L80.394 89.9772L66.2078 67.3032C70.2566 69.7908 75.02 71.2229 80.1188 71.2229C85.1877 71.2226 89.9263 69.8071 93.9589 67.347Z" fill="#FFDAD5"/>
<path d="M41.1879 45.1946C41.1879 53.1917 36.306 60.0434 29.3603 62.9403L31.7653 102.94C32.1043 108.581 27.6215 113.341 21.9707 113.341C16.32 113.341 11.8372 108.58 12.1762 102.94L14.5812 62.9403C7.63578 60.0434 2.75391 53.1917 2.75391 45.1946C2.75391 36.8946 8.01444 29.8247 15.3845 27.1396V42.5065L21.971 47.5566L28.5576 42.5065V27.1396C35.9273 29.8247 41.1879 36.8946 41.1879 45.1946Z" fill="#F9F5F3"/>
<path d="M41.1879 45.1946C41.1879 53.1917 36.306 60.0434 29.3603 62.9403L31.7653 102.94C32.1043 108.581 27.6215 113.341 21.9707 113.341C16.32 113.341 11.8372 108.58 12.1762 102.94L14.5812 62.9403C7.63578 60.0434 2.75391 53.1917 2.75391 45.1946C2.75391 36.8946 8.01444 29.8247 15.3845 27.1396V42.5065L21.971 47.5566L28.5576 42.5065V27.1396C35.9273 29.8247 41.1879 36.8946 41.1879 45.1946Z" fill="#F9F5F3"/>
<path d="M140.979 137.773L136.751 104.354C134.704 88.1762 120.021 75.8805 102.32 75.2834L97.7448 68.0836C104.868 62.7206 109.483 54.1956 109.483 44.6125V35.1377C109.483 34.1418 109.429 33.1446 109.33 32.1571C110.706 30.619 111.718 28.8199 111.889 26.9726C112.05 25.234 111.434 23.6891 110.154 22.623C110.131 22.6037 110.105 22.5834 110.082 22.5641C108.863 18.1633 106.734 14.0446 103.889 10.6005C102.921 9.42818 101.185 9.26267 100.012 10.2315C98.8392 11.2003 98.6742 12.9361 99.6425 14.1087C100.715 15.4102 101.659 16.8124 102.461 18.2958C95.4736 15.6518 87.7817 14.8721 80.3588 14.8793C72.7315 14.8597 64.8476 15.6025 57.6775 18.3583C61.8365 10.6283 69.4615 5.63576 77.8871 5.63576H80.2271C81.7478 5.63576 82.981 4.40283 82.981 2.88185C82.981 1.36086 81.7478 0.12793 80.2271 0.12793H77.8871C65.0503 0.12793 53.7554 9.31279 50.1006 22.5812C50.0827 22.596 50.0629 22.6115 50.0453 22.6261C48.7633 23.6904 48.144 25.2343 48.3018 26.9728C48.4714 28.8411 49.5039 30.6614 50.9031 32.2122C50.8076 33.1788 50.7552 34.1573 50.7552 35.1382V44.6131C50.7552 54.1826 55.3576 62.6969 62.4641 68.0613L57.8846 75.2675C48.6532 75.417 39.9274 78.7878 33.4191 84.5592L32.2208 64.6351C39.4011 60.8546 43.9418 53.4245 43.9418 45.195C43.9418 35.9949 38.1382 27.6993 29.5 24.5524C29.0839 24.4011 28.6375 24.3522 28.1986 24.41C27.7596 24.4678 27.3411 24.6305 26.9784 24.8844C26.6157 25.1383 26.3195 25.4758 26.115 25.8685C25.9105 26.2611 25.8036 26.6973 25.8034 27.14V41.1484L21.9708 44.0871L18.1384 41.1484V27.14C18.1384 26.6972 18.0316 26.2609 17.8272 25.8682C17.6227 25.4754 17.3265 25.1378 16.9637 24.8839C16.601 24.6299 16.1824 24.4672 15.7433 24.4095C15.3043 24.3518 14.8579 24.4009 14.4418 24.5524C5.80361 27.6996 0 35.9952 0 45.195C0 53.4245 4.54038 60.8548 11.7209 64.6351L9.42749 102.775C9.22067 106.218 10.458 109.633 12.8228 112.144C15.0763 114.537 18.2114 115.955 21.4866 116.083L19.1607 137.826C18.9891 139.429 20.2851 140.873 21.8989 140.873H138.247C139.88 140.873 141.184 139.395 140.979 137.773ZM62.3751 78.4705L66.1874 72.4709L76.671 89.2813L68.0815 95.6732L62.3751 78.4705ZM73.7491 73.2791C78.2052 74.2645 82.8789 74.2014 87.3061 73.0883L80.3433 84.7043L73.1022 73.1307C73.3167 73.1833 73.5332 73.2312 73.7491 73.2791ZM92.7528 95.6252L84.0468 89.2403L94.0543 72.5452L97.8475 78.5149L92.7528 95.6252ZM98.2719 31.1767L98.2248 31.156C96.6785 30.4645 94.2897 29.6364 90.8443 29.03C88.0171 28.5321 84.48 28.184 80.1164 28.184C69.358 28.184 63.5995 30.3012 61.1342 31.5587C60.0368 32.0117 58.2189 30.9853 57.3586 30.4673C55.9946 29.6461 54.2524 28.2741 53.8176 26.6583C57.2531 23.9529 61.7175 22.5825 65.9346 21.6963C70.6652 20.7022 75.5196 20.3926 80.345 20.3871C85.4439 20.3992 90.5733 20.8076 95.5469 21.9723C99.3283 22.8579 103.286 24.209 106.374 26.6484C105.914 28.3592 104.017 29.8058 102.547 30.6251C101.122 31.419 99.781 31.8558 98.2719 31.1767ZM56.2628 44.6128V36.0944C58.5094 37.0814 61.3377 37.6379 63.6284 36.4705C65.2667 35.6353 70.1536 33.6924 80.1167 33.6924C83.5943 33.6924 86.4474 33.9287 88.7599 34.2713C92.8197 34.8733 95.209 35.803 96.3563 36.3607C98.8042 37.5517 101.549 37.1389 103.976 36.0619V44.6125C103.976 54.2898 97.8902 63.2237 88.8975 66.7945C86.1031 67.901 83.1247 68.4692 80.1192 68.4691C70.2307 68.4691 61.1416 62.1123 57.7243 52.8368C56.7567 50.2029 56.2619 47.4188 56.2628 44.6128ZM16.8325 108.368C15.4845 106.937 14.8073 105.068 14.9254 103.106L17.3304 63.1062C17.3646 62.5354 17.2205 61.9682 16.9178 61.4831C16.6152 60.9981 16.1691 60.6192 15.6414 60.3991C9.48559 57.8316 5.50783 51.8636 5.50783 45.195C5.50783 39.7158 8.25432 34.6648 12.6306 31.6388V42.5069C12.6306 43.3633 13.0291 44.171 13.7087 44.6924L20.295 49.7425C20.7759 50.1111 21.3649 50.3109 21.9708 50.3109C22.5766 50.3109 23.1656 50.1111 23.6465 49.7425L30.2331 44.6924C30.5684 44.4352 30.8401 44.1044 31.0271 43.7254C31.214 43.3464 31.3113 42.9295 31.3112 42.5069V31.6388C35.6877 34.6648 38.4339 39.7155 38.4339 45.195C38.4339 51.8633 34.4562 57.8313 28.3001 60.3988C27.7724 60.6189 27.3263 60.9978 27.0237 61.4829C26.7211 61.9679 26.5769 62.5352 26.6111 63.1059L29.0161 103.106C29.2584 107.099 25.9678 110.588 21.9705 110.588C20.005 110.588 18.1803 109.8 16.8325 108.368ZM121.981 135.365V121.13C121.981 119.609 120.748 118.376 119.227 118.376C117.706 118.376 116.473 119.609 116.473 121.13V135.365H42.6092V121.13C42.6092 119.609 41.376 118.376 39.8552 118.376C38.3345 118.376 37.1013 119.609 37.1013 121.13V135.365H24.9632L27.1434 114.984C31.8347 112.855 34.8236 107.921 34.5159 102.776L33.8691 92.014C39.378 85.2391 48.0129 81.1102 57.3399 80.7869L64.0536 101.026C64.6336 102.774 66.8312 103.471 68.3115 102.368L77.6404 95.4267V115.871C77.6404 117.392 78.8736 118.625 80.3943 118.625C81.915 118.625 83.1482 117.392 83.1482 115.871V95.4118L92.6481 102.378C94.1578 103.485 96.3832 102.74 96.9178 100.944L102.908 80.8205C117.574 81.6464 129.609 91.7835 131.287 105.045L135.123 135.365H121.981V135.365Z" fill="black"/>
<path d="M77.0344 51.6026H83.2041C84.7248 51.6026 85.958 50.3697 85.958 48.8487C85.958 47.3277 84.7248 46.0948 83.2041 46.0948H81.2526L82.8075 42.5563C83.4194 41.1639 82.7866 39.5391 81.3942 38.9272C80.0015 38.3158 78.3767 38.9481 77.7648 40.3405L74.5127 47.7408C74.3286 48.16 74.2519 48.6185 74.2895 49.0748C74.3271 49.5311 74.4778 49.9708 74.728 50.3543C74.9785 50.7376 75.3205 51.0524 75.7232 51.2704C76.1259 51.4884 76.5766 51.6025 77.0344 51.6026ZM106.73 116.512H92.5847C91.064 116.512 89.8308 117.745 89.8308 119.266C89.8308 120.787 91.064 122.02 92.5847 122.02H106.73C108.25 122.02 109.484 120.787 109.484 119.266C109.484 117.745 108.25 116.512 106.73 116.512ZM73.5185 107.838C73.0738 106.752 71.9416 106.058 70.7723 106.145C69.6223 106.231 68.632 107.046 68.323 108.156C67.67 110.5 70.3003 112.498 72.3897 111.252C73.5458 110.564 74.036 109.079 73.5185 107.838ZM22.5074 104.076C24.8882 103.593 25.5056 100.356 23.4421 99.0498C21.2811 97.6814 18.511 99.8953 19.3795 102.304C19.8359 103.568 21.1853 104.344 22.5074 104.076ZM90.1384 6.27588C90.5914 7.3623 91.7084 8.05134 92.8824 7.96707C94.0776 7.88114 95.1018 6.99466 95.3648 5.82645C95.9062 3.42117 93.1171 1.56008 91.0962 2.97118C90.0489 3.70262 89.6562 5.09914 90.1384 6.27588Z" fill="black"/>
</svg>
