<svg width="182" height="164" viewBox="0 0 182 164" fill="none" xmlns="http://www.w3.org/2000/svg">
<path d="M101.801 108.36L93.0934 113.709L70.1304 75.6977L78.8376 70.3486L101.801 108.36Z" fill="#FFD064"/>
<path d="M107.233 119.698H88.5174V113.285C88.5174 108.117 92.7069 103.927 97.8751 103.927C103.043 103.927 107.233 108.117 107.233 113.285V119.698H107.233Z" fill="#808B95"/>
<path d="M97.8751 103.927C95.9688 103.924 94.1076 104.507 92.5431 105.596C94.9752 107.286 96.5688 110.098 96.5688 113.284V119.698H107.233V113.284C107.233 108.116 103.043 103.927 97.8751 103.927Z" fill="#5E6B75"/>
<path d="M164.357 21.8745L148.769 31.2212C148.539 31.3594 148.283 31.4509 148.017 31.4904C147.752 31.5299 147.481 31.5166 147.22 31.4514C146.96 31.3862 146.714 31.2702 146.498 31.1102C146.283 30.9502 146.1 30.7492 145.962 30.5188L137.131 15.7914C136.993 15.561 136.902 15.3056 136.862 15.0398C136.823 14.7741 136.836 14.5031 136.901 14.2425C136.966 13.9819 137.082 13.7366 137.242 13.5208C137.402 13.305 137.603 13.1228 137.834 12.9846L153.421 3.63791C156.652 1.70096 160.84 2.74959 162.777 5.97974L166.698 12.5193C168.635 15.7491 167.587 19.9376 164.357 21.8745Z" fill="#FFD064"/>
<path d="M166.698 12.519L162.777 5.97939C160.84 2.7496 156.652 1.70097 153.421 3.63792L151.312 4.90268C151.608 5.229 151.878 5.58767 152.113 5.97975L156.034 12.5193C157.971 15.7495 156.922 19.9379 153.692 21.8749L144.194 27.5702L145.962 30.5188C146.241 30.9842 146.693 31.3197 147.22 31.4515C147.746 31.5833 148.303 31.5006 148.769 31.2216L164.356 21.8749C167.587 19.9376 168.635 15.7491 166.698 12.519Z" fill="#FFC250"/>
<path d="M176.568 103.472V133.9H6.35931V119.699L120.361 119.696C120.91 119.696 121.436 119.477 121.824 119.089C122.213 118.701 122.431 118.175 122.431 117.626L122.433 78.3403H164.239L169.93 97.8513L174.217 99.8114C174.918 100.132 175.513 100.648 175.93 101.297C176.347 101.946 176.568 102.701 176.568 103.472Z" fill="#FFD064"/>
<path d="M174.217 99.8114L169.93 97.8513L164.239 78.3403H153.575L159.266 97.8513L163.553 99.8114C164.254 100.132 164.849 100.648 165.266 101.297C165.682 101.946 165.904 102.701 165.904 103.472V133.9H176.568V103.472C176.568 102.701 176.347 101.946 175.93 101.297C175.513 100.648 174.918 100.132 174.217 99.8114Z" fill="#FFC250"/>
<path d="M177.201 144.564H4.79883C4.23317 144.564 3.69068 144.339 3.2907 143.939C2.89072 143.539 2.66602 142.997 2.66602 142.431V136.033C2.66602 135.467 2.89072 134.925 3.2907 134.525C3.69068 134.125 4.23317 133.9 4.79883 133.9H177.201C177.767 133.9 178.309 134.125 178.709 134.525C179.109 134.925 179.334 135.467 179.334 136.033V142.431C179.334 142.997 179.109 143.539 178.709 143.939C178.309 144.339 177.767 144.564 177.201 144.564Z" fill="#D8E2F1"/>
<path d="M177.201 133.9H166.537C167.103 133.9 167.645 134.125 168.045 134.525C168.445 134.925 168.67 135.467 168.67 136.033V142.431C168.67 142.997 168.445 143.539 168.045 143.939C167.645 144.339 167.103 144.564 166.537 144.564H177.201C177.767 144.564 178.309 144.339 178.709 143.939C179.109 143.539 179.334 142.997 179.334 142.431V136.033C179.334 135.467 179.109 134.925 178.709 134.525C178.309 134.125 177.767 133.9 177.201 133.9Z" fill="#B9CBEA"/>
<path d="M169.928 97.8499L159.264 97.8535H149.119C146.602 97.8535 144.562 95.8131 144.562 93.2964V78.3418H164.237L169.928 97.8499Z" fill="#DAF1F4"/>
<path d="M159.264 97.8535V97.8499L153.573 78.3418H164.237L169.928 97.8499L159.264 97.8535Z" fill="#B9E4EF"/>
<path d="M167.936 78.3403H122.431V72.8352C122.431 70.3785 124.422 68.3872 126.879 68.3872H167.936C168.371 68.3872 168.802 68.4729 169.204 68.6395C169.606 68.806 169.972 69.0502 170.28 69.3581C170.588 69.6659 170.832 70.0314 170.998 70.4336C171.165 70.8358 171.251 71.267 171.251 71.7023V75.0252C171.251 75.9044 170.901 76.7477 170.28 77.3694C169.658 77.9911 168.815 78.3403 167.936 78.3403Z" fill="#D8E2F1"/>
<path d="M167.935 68.3872H157.271C157.707 68.3872 158.138 68.4729 158.54 68.6395C158.942 68.806 159.308 69.0502 159.616 69.3581C159.924 69.6659 160.168 70.0314 160.334 70.4336C160.501 70.8358 160.587 71.267 160.587 71.7023V75.0252C160.587 75.4606 160.501 75.8917 160.334 76.2939C160.168 76.6961 159.924 77.0616 159.616 77.3695C159.308 77.6773 158.942 77.9215 158.54 78.0881C158.138 78.2547 157.707 78.3404 157.271 78.3403H167.935C168.371 78.3404 168.802 78.2547 169.204 78.0881C169.606 77.9215 169.972 77.6773 170.28 77.3695C170.588 77.0616 170.832 76.6961 170.998 76.2939C171.165 75.8917 171.251 75.4606 171.251 75.0252V71.7023C171.251 71.267 171.165 70.8358 170.998 70.4336C170.832 70.0314 170.588 69.6659 170.28 69.3581C169.972 69.0502 169.606 68.806 169.204 68.6395C168.802 68.4729 168.371 68.3872 167.935 68.3872Z" fill="#B9CBEA"/>
<path d="M176.568 124.119H167.217C167.045 124.119 166.874 124.085 166.715 124.019C166.556 123.953 166.411 123.856 166.289 123.734C166.167 123.612 166.07 123.467 166.004 123.308C165.938 123.149 165.904 122.978 165.904 122.806V114.768C165.904 114.42 166.043 114.086 166.289 113.84C166.535 113.593 166.869 113.455 167.217 113.455H176.568V124.119Z" fill="#B9E4EF"/>
<path d="M165.907 103.927H162.269C161.788 103.927 161.327 103.736 160.987 103.396C160.648 103.056 160.457 102.595 160.456 102.114V91.5205C160.457 91.0399 160.648 90.5789 160.987 90.239C161.327 89.8991 161.788 89.7081 162.269 89.708H165.907C168.394 89.708 170.41 91.7239 170.41 94.2107V99.4244C170.41 101.911 168.394 103.927 165.907 103.927Z" fill="#D8E2F1"/>
<path d="M149.802 160.494C158.636 160.494 165.798 153.332 165.798 144.498C165.798 135.664 158.636 128.502 149.802 128.502C140.968 128.502 133.806 135.664 133.806 144.498C133.806 153.332 140.968 160.494 149.802 160.494Z" fill="#5E6B75"/>
<path d="M31.1209 160.494C39.9553 160.494 47.117 153.332 47.117 144.498C47.117 135.664 39.9553 128.502 31.1209 128.502C22.2865 128.502 15.1248 135.664 15.1248 144.498C15.1248 153.332 22.2865 160.494 31.1209 160.494Z" fill="#5E6B75"/>
<path d="M31.1209 149.83C34.0657 149.83 36.4529 147.443 36.4529 144.498C36.4529 141.553 34.0657 139.166 31.1209 139.166C28.1761 139.166 25.7889 141.553 25.7889 144.498C25.7889 147.443 28.1761 149.83 31.1209 149.83Z" fill="#D8E2F1"/>
<path d="M70.6878 160.494C79.5222 160.494 86.6839 153.332 86.6839 144.498C86.6839 135.664 79.5222 128.502 70.6878 128.502C61.8534 128.502 54.6917 135.664 54.6917 144.498C54.6917 153.332 61.8534 160.494 70.6878 160.494Z" fill="#5E6B75"/>
<path d="M70.6878 149.83C73.6326 149.83 76.0198 147.443 76.0198 144.498C76.0198 141.553 73.6326 139.166 70.6878 139.166C67.743 139.166 65.3558 141.553 65.3558 144.498C65.3558 147.443 67.743 149.83 70.6878 149.83Z" fill="#D8E2F1"/>
<path d="M149.802 149.83C152.747 149.83 155.134 147.443 155.134 144.498C155.134 141.553 152.747 139.166 149.802 139.166C146.857 139.166 144.47 141.553 144.47 144.498C144.47 147.443 146.857 149.83 149.802 149.83Z" fill="#D8E2F1"/>
<path d="M120.915 150.962H99.5743C98.9161 150.962 98.2848 150.701 97.8193 150.235C97.3539 149.77 97.0924 149.139 97.0924 148.481V133.9H123.397V148.481C123.397 149.139 123.136 149.77 122.67 150.235C122.205 150.701 121.573 150.962 120.915 150.962Z" fill="#808B95"/>
<path d="M112.733 133.9V148.481C112.733 149.139 112.471 149.77 112.006 150.235C111.541 150.701 110.909 150.962 110.251 150.962H120.915C121.573 150.962 122.205 150.701 122.67 150.235C123.136 149.77 123.397 149.139 123.397 148.481V133.9H112.733Z" fill="#5E6B75"/>
<path d="M131.974 112.246H124.263C123.777 112.246 123.311 112.053 122.968 111.71C122.624 111.366 122.431 110.9 122.431 110.414V89.9297C122.431 89.4438 122.624 88.9778 122.968 88.6343C123.311 88.2907 123.777 88.0977 124.263 88.0977H131.974C132.46 88.0977 132.926 88.2907 133.269 88.6343C133.613 88.9778 133.806 89.4438 133.806 89.9297V110.414C133.806 110.9 133.613 111.366 133.269 111.71C132.926 112.053 132.46 112.246 131.974 112.246Z" fill="#D8E2F1"/>
<path d="M53.202 119.698H17.9171V75.7494C17.9171 73.7211 19.5615 72.0767 21.5898 72.0767H49.5289C51.5572 72.0767 53.2016 73.7211 53.2016 75.7494V119.698H53.202Z" fill="#80B4FB"/>
<path d="M49.5289 72.0767H38.8648C40.8931 72.0767 42.5375 73.7211 42.5375 75.7494V119.698H53.2016V75.7494C53.2019 73.7211 51.5575 72.0767 49.5289 72.0767Z" fill="#61A2F9"/>
<path d="M73.3197 119.698H41.4967V106.012C41.4967 105.459 41.7164 104.929 42.1073 104.538C42.4983 104.147 43.0286 103.927 43.5815 103.927H64.4216C69.3359 103.927 73.3197 107.911 73.3197 112.825V119.698Z" fill="#808B95"/>
<path d="M64.4216 103.927H53.7575C58.6719 103.927 62.6556 107.91 62.6556 112.824V119.697H73.3197V112.824C73.3197 107.91 69.3359 103.927 64.4216 103.927Z" fill="#5E6B75"/>
<path d="M89.7015 108.095L70.1304 75.6977L78.8376 70.3486L98.9931 103.713M170.781 98.2401L174.217 99.8113C174.919 100.132 175.513 100.648 175.93 101.297C176.347 101.946 176.569 102.701 176.569 103.472V133.182" stroke="black" stroke-width="5.33203" stroke-miterlimit="10" stroke-linecap="round" stroke-linejoin="round"/>
<path d="M6.35934 133.499V119.7L120.361 119.696C120.91 119.696 121.436 119.478 121.824 119.09C122.213 118.702 122.431 118.175 122.431 117.626L122.432 78.3408H164.239L167.554 89.7087M83.5352 133.901H136.5M44.552 133.9H57.823M14.3371 144.564H4.79883C4.23317 144.564 3.69068 144.34 3.2907 143.94C2.89072 143.54 2.66602 142.997 2.66602 142.431V136.033C2.66602 135.467 2.89072 134.925 3.2907 134.525C3.69068 134.125 4.23317 133.9 4.79883 133.9H17.9512M54.0312 144.565H47.5144M96.6086 144.565H87.5637M132.945 144.565H123.861M162.39 133.9H177.201C177.767 133.9 178.309 134.125 178.709 134.525C179.109 134.925 179.334 135.467 179.334 136.033V142.431C179.334 142.997 179.109 143.54 178.709 143.94C178.309 144.34 177.767 144.564 177.201 144.564H166.182" stroke="black" stroke-width="5.33203" stroke-miterlimit="10" stroke-linecap="round" stroke-linejoin="round"/>
<path d="M159.487 97.8527L149.12 97.8545C146.603 97.8545 144.562 95.8141 144.562 93.2974V78.7559M155.36 68.3872H167.936C168.371 68.3872 168.802 68.4729 169.204 68.6395C169.606 68.806 169.972 69.0502 170.28 69.3581C170.588 69.6659 170.832 70.0314 170.998 70.4336C171.165 70.8358 171.251 71.267 171.251 71.7023V75.0252C171.251 75.4606 171.165 75.8917 170.998 76.2939C170.832 76.6961 170.588 77.0616 170.28 77.3695C169.972 77.6773 169.606 77.9215 169.204 78.0881C168.802 78.2547 168.371 78.3404 167.936 78.3403H122.431V72.8352C122.431 70.3785 124.422 68.3872 126.879 68.3872H142.464M146.729 112.496H153.268L155.36 113.82M176.568 124.119H167.217C167.045 124.119 166.874 124.085 166.715 124.019C166.556 123.953 166.411 123.856 166.289 123.734C166.167 123.612 166.07 123.467 166.004 123.308C165.938 123.149 165.904 122.978 165.904 122.806V114.768C165.904 114.42 166.043 114.086 166.289 113.84C166.535 113.593 166.869 113.455 167.217 113.455H176.568V124.119ZM165.907 103.927H162.269C161.788 103.927 161.327 103.736 160.987 103.396C160.648 103.056 160.457 102.595 160.456 102.114V91.5204C160.457 91.0397 160.648 90.5787 160.987 90.2388C161.327 89.899 161.788 89.708 162.269 89.7079H165.907C168.394 89.7079 170.41 91.7237 170.41 94.2106V99.4243C170.41 101.911 168.394 103.927 165.907 103.927Z" stroke="black" stroke-width="5.33203" stroke-miterlimit="10" stroke-linecap="round" stroke-linejoin="round"/>
<path d="M149.802 160.494C158.636 160.494 165.798 153.332 165.798 144.498C165.798 135.664 158.636 128.502 149.802 128.502C140.968 128.502 133.806 135.664 133.806 144.498C133.806 153.332 140.968 160.494 149.802 160.494Z" stroke="black" stroke-width="5.33203" stroke-miterlimit="10" stroke-linecap="round" stroke-linejoin="round"/>
<path d="M31.1209 160.494C39.9553 160.494 47.117 153.332 47.117 144.498C47.117 135.664 39.9553 128.502 31.1209 128.502C22.2865 128.502 15.1248 135.664 15.1248 144.498C15.1248 153.332 22.2865 160.494 31.1209 160.494Z" stroke="black" stroke-width="5.33203" stroke-miterlimit="10" stroke-linecap="round" stroke-linejoin="round"/>
<path d="M31.121 149.828C34.065 149.828 36.4516 147.442 36.4516 144.498C36.4516 141.554 34.065 139.167 31.121 139.167C28.1769 139.167 25.7903 141.554 25.7903 144.498C25.7903 147.442 28.1769 149.828 31.121 149.828Z" stroke="black" stroke-width="5.33203" stroke-miterlimit="10" stroke-linecap="round" stroke-linejoin="round"/>
<path d="M70.6878 160.494C79.5222 160.494 86.6839 153.332 86.6839 144.498C86.6839 135.664 79.5222 128.502 70.6878 128.502C61.8534 128.502 54.6917 135.664 54.6917 144.498C54.6917 153.332 61.8534 160.494 70.6878 160.494Z" stroke="black" stroke-width="5.33203" stroke-miterlimit="10" stroke-linecap="round" stroke-linejoin="round"/>
<path d="M70.6878 149.828C73.6318 149.828 76.0184 147.442 76.0184 144.498C76.0184 141.554 73.6318 139.167 70.6878 139.167C67.7438 139.167 65.3572 141.554 65.3572 144.498C65.3572 147.442 67.7438 149.828 70.6878 149.828Z" stroke="black" stroke-width="5.33203" stroke-miterlimit="10" stroke-linecap="round" stroke-linejoin="round"/>
<path d="M149.802 149.828C152.746 149.828 155.133 147.442 155.133 144.498C155.133 141.554 152.746 139.167 149.802 139.167C146.858 139.167 144.471 141.554 144.471 144.498C144.471 147.442 146.858 149.828 149.802 149.828Z" stroke="black" stroke-width="5.33203" stroke-miterlimit="10" stroke-linecap="round" stroke-linejoin="round"/>
<path d="M43.3779 71.7641L138.515 18.0986L144.578 28.211L53.5393 86.1393M120.915 150.963H99.5743C98.916 150.963 98.2848 150.701 97.8193 150.236C97.3539 149.77 97.0924 149.139 97.0924 148.481V133.9H123.397V148.481C123.397 149.139 123.136 149.77 122.67 150.236C122.205 150.701 121.573 150.963 120.915 150.963ZM131.974 112.246H124.263C123.777 112.246 123.311 112.053 122.968 111.71C122.624 111.366 122.431 110.9 122.431 110.414V89.9296C122.431 89.4437 122.624 88.9777 122.968 88.6341C123.311 88.2906 123.777 88.0975 124.263 88.0975H131.974C132.46 88.0975 132.926 88.2906 133.269 88.6341C133.613 88.9777 133.806 89.4437 133.806 89.9296V110.414C133.806 110.9 133.613 111.366 133.269 111.71C132.926 112.053 132.46 112.246 131.974 112.246ZM107.233 119.698H88.5174V113.285C88.5174 108.116 92.707 103.927 97.8751 103.927C103.043 103.927 107.233 108.116 107.233 113.285V119.698H107.233Z" stroke="black" stroke-width="5.33203" stroke-miterlimit="10" stroke-linecap="round" stroke-linejoin="round"/>
<path d="M17.9171 93.9351V75.7494C17.9171 73.7211 19.5615 72.0767 21.5898 72.0767H49.5289C51.5572 72.0767 53.2016 73.7211 53.2016 75.7494V103.422M17.9171 118.825V106.937M59.9615 62.8522L67.8636 76.2356L78.0197 53.2752L102.101 54.4618L114.663 32.6861L135.565 33.0131M30.2742 85.4903V88.778M41.2145 85.4903V88.778M148.073 8.077L157.986 24.7446M164.357 21.8745L148.769 31.2212C148.539 31.3594 148.283 31.4509 148.017 31.4904C147.752 31.5299 147.481 31.5166 147.22 31.4514C146.959 31.3862 146.714 31.2702 146.498 31.1102C146.283 30.9502 146.1 30.7492 145.962 30.5188L137.131 15.7914C136.993 15.561 136.902 15.3056 136.862 15.0398C136.823 14.7741 136.836 14.5031 136.901 14.2425C136.966 13.9819 137.082 13.7366 137.242 13.5208C137.402 13.305 137.603 13.1228 137.834 12.9846L153.421 3.63791C156.652 1.70096 160.84 2.74959 162.777 5.97974L166.698 12.5193C168.635 15.7491 167.587 19.9376 164.357 21.8745ZM73.3197 119.698H41.4967V106.012C41.4967 105.459 41.7164 104.929 42.1073 104.538C42.4983 104.147 43.0286 103.927 43.5815 103.927H64.4216C69.336 103.927 73.3197 107.911 73.3197 112.825V119.698Z" stroke="black" stroke-width="5.33203" stroke-miterlimit="10" stroke-linecap="round" stroke-linejoin="round"/>
</svg>
